STARTFONT 2.1
FONT -FreeType-Opel Sans-Bold-R-Normal--13-130-72-72-P-67-ISO10646-1
SIZE 13 72 72
FONTBOUNDINGBOX 17 16 -4 -3
COMMENT "Generated by fontforge, http://fontforge.sourceforge.net"
COMMENT ""
COMMENT "Converted from OpenType font "OpelSansBold.ttf" by "otf2bdf 3.0"."
COMMENT ""
STARTPROPERTIES 19
FOUNDRY "FreeType"
FAMILY_NAME "Opel Sans"
WEIGHT_NAME "Bold"
SLANT "R"
SETWIDTH_NAME "Normal"
ADD_STYLE_NAME ""
PIXEL_SIZE 13
POINT_SIZE 130
RESOLUTION_X 72
RESOLUTION_Y 72
SPACING "P"
AVERAGE_WIDTH 67
CHARSET_REGISTRY "ISO10646"
CHARSET_ENCODING "1"
FONT_ASCENT 12
FONT_DESCENT 3
COPYRIGHT "Digitised data copyright Agfa Monotype Corporation 2001. All Rights reserved."
_OTF_FONTFILE "OpelSansBold.ttf"
_OTF_PSNAME "OpelSans-Bold"
ENDPROPERTIES
CHARS 493
STARTCHAR $0020
ENCODING 32
SWIDTH 230 0
DWIDTH 3 0
BBX 1 1 0 0
BITMAP
00
ENDCHAR
STARTCHAR $0021
ENCODING 33
SWIDTH 230 0
DWIDTH 3 0
BBX 2 10 0 0
BITMAP
C0
C0
C0
C0
C0
C0
C0
00
C0
C0
ENDCHAR
STARTCHAR $0022
ENCODING 34
SWIDTH 384 0
DWIDTH 5 0
BBX 3 4 1 5
BITMAP
A0
A0
A0
A0
ENDCHAR
STARTCHAR $0023
ENCODING 35
SWIDTH 846 0
DWIDTH 11 0
BBX 10 8 0 0
BITMAP
0780
86C0
C6C0
E680
F700
E680
C6C0
86C0
ENDCHAR
STARTCHAR $0024
ENCODING 36
SWIDTH 846 0
DWIDTH 11 0
BBX 10 8 0 0
BITMAP
0380
86C0
C600
E300
F180
E4C0
C6C0
8380
ENDCHAR
STARTCHAR $0025
ENCODING 37
SWIDTH 692 0
DWIDTH 9 0
BBX 8 9 0 0
BITMAP
64
94
98
68
08
16
19
29
26
ENDCHAR
STARTCHAR $0026
ENCODING 38
SWIDTH 615 0
DWIDTH 8 0
BBX 8 9 0 0
BITMAP
70
C8
C8
70
C8
CC
C6
C7
7A
ENDCHAR
STARTCHAR $0027
ENCODING 39
SWIDTH 230 0
DWIDTH 3 0
BBX 1 4 1 5
BITMAP
80
80
80
80
ENDCHAR
STARTCHAR $0028
ENCODING 40
SWIDTH 307 0
DWIDTH 4 0
BBX 4 12 0 -2
BITMAP
30
60
60
C0
C0
C0
C0
C0
C0
60
60
30
ENDCHAR
STARTCHAR $0029
ENCODING 41
SWIDTH 307 0
DWIDTH 4 0
BBX 4 12 -1 -2
BITMAP
C0
60
60
30
30
30
30
30
30
60
60
C0
ENDCHAR
STARTCHAR $002A
ENCODING 42
SWIDTH 538 0
DWIDTH 7 0
BBX 3 3 1 7
BITMAP
A0
40
A0
ENDCHAR
STARTCHAR $002B
ENCODING 43
SWIDTH 538 0
DWIDTH 7 0
BBX 5 5 1 2
BITMAP
20
20
F8
20
20
ENDCHAR
STARTCHAR $002C
ENCODING 44
SWIDTH 230 0
DWIDTH 3 0
BBX 2 4 0 -2
BITMAP
C0
C0
40
80
ENDCHAR
STARTCHAR $002D
ENCODING 45
SWIDTH 384 0
DWIDTH 5 0
BBX 4 1 0 3
BITMAP
F0
ENDCHAR
STARTCHAR $002E
ENCODING 46
SWIDTH 230 0
DWIDTH 3 0
BBX 2 2 0 0
BITMAP
C0
C0
ENDCHAR
STARTCHAR $002F
ENCODING 47
SWIDTH 307 0
DWIDTH 4 0
BBX 4 11 0 -1
BITMAP
30
30
30
60
60
60
60
60
C0
C0
C0
ENDCHAR
STARTCHAR $0030
ENCODING 48
SWIDTH 538 0
DWIDTH 7 0
BBX 6 9 0 0
BITMAP
78
CC
CC
CC
CC
CC
CC
CC
78
ENDCHAR
STARTCHAR $0031
ENCODING 49
SWIDTH 538 0
DWIDTH 7 0
BBX 3 9 1 0
BITMAP
20
60
E0
60
60
60
60
60
60
ENDCHAR
STARTCHAR $0032
ENCODING 50
SWIDTH 538 0
DWIDTH 7 0
BBX 6 9 0 0
BITMAP
78
8C
0C
0C
0C
18
30
60
FC
ENDCHAR
STARTCHAR $0033
ENCODING 51
SWIDTH 538 0
DWIDTH 7 0
BBX 6 9 0 0
BITMAP
78
8C
0C
0C
38
0C
0C
8C
78
ENDCHAR
STARTCHAR $0034
ENCODING 52
SWIDTH 538 0
DWIDTH 7 0
BBX 7 9 0 0
BITMAP
0C
0C
1C
2C
4C
4C
FE
0C
0C
ENDCHAR
STARTCHAR $0035
ENCODING 53
SWIDTH 538 0
DWIDTH 7 0
BBX 6 9 0 0
BITMAP
3C
30
60
78
4C
0C
0C
8C
78
ENDCHAR
STARTCHAR $0036
ENCODING 54
SWIDTH 538 0
DWIDTH 7 0
BBX 6 9 0 0
BITMAP
18
30
60
F8
CC
CC
CC
CC
78
ENDCHAR
STARTCHAR $0037
ENCODING 55
SWIDTH 538 0
DWIDTH 7 0
BBX 7 9 0 0
BITMAP
FE
0C
0C
18
18
30
30
60
60
ENDCHAR
STARTCHAR $0038
ENCODING 56
SWIDTH 538 0
DWIDTH 7 0
BBX 6 9 0 0
BITMAP
78
CC
CC
CC
78
CC
CC
CC
78
ENDCHAR
STARTCHAR $0039
ENCODING 57
SWIDTH 538 0
DWIDTH 7 0
BBX 6 9 0 0
BITMAP
78
CC
CC
CC
CC
78
30
60
C0
ENDCHAR
STARTCHAR $003A
ENCODING 58
SWIDTH 230 0
DWIDTH 3 0
BBX 2 6 0 0
BITMAP
C0
C0
00
00
C0
C0
ENDCHAR
STARTCHAR $003B
ENCODING 59
SWIDTH 230 0
DWIDTH 3 0
BBX 2 8 0 -2
BITMAP
C0
C0
00
00
C0
C0
40
80
ENDCHAR
STARTCHAR $003C
ENCODING 60
SWIDTH 538 0
DWIDTH 6 0
BBX 4 7 1 2
BITMAP
10
30
70
E0
70
30
10
ENDCHAR
STARTCHAR $003D
ENCODING 61
SWIDTH 538 0
DWIDTH 7 0
BBX 4 3 1 3
BITMAP
F0
00
F0
ENDCHAR
STARTCHAR $003E
ENCODING 62
SWIDTH 538 0
DWIDTH 6 0
BBX 4 7 1 2
BITMAP
80
C0
E0
70
E0
C0
80
ENDCHAR
STARTCHAR $003F
ENCODING 63
SWIDTH 461 0
DWIDTH 6 0
BBX 5 10 0 0
BITMAP
70
98
18
18
38
70
60
00
60
60
ENDCHAR
STARTCHAR $0040
ENCODING 64
SWIDTH 1000 0
DWIDTH 13 0
BBX 12 11 0 0
BITMAP
CE90
2820
6640
8290
EC00
0000
DF60
8E20
E4E0
8020
FFE0
ENDCHAR
STARTCHAR $0041
ENCODING 65
SWIDTH 769 0
DWIDTH 10 0
BBX 9 9 0 0
BITMAP
0800
1C00
1C00
3600
3600
6300
7F00
C180
C180
ENDCHAR
STARTCHAR $0042
ENCODING 66
SWIDTH 615 0
DWIDTH 8 0
BBX 7 9 0 0
BITMAP
FC
C6
C6
C6
F8
C6
C6
C6
FC
ENDCHAR
STARTCHAR $0043
ENCODING 67
SWIDTH 615 0
DWIDTH 8 0
BBX 7 9 0 0
BITMAP
3C
62
C0
C0
C0
C0
C0
62
3C
ENDCHAR
STARTCHAR $0044
ENCODING 68
SWIDTH 692 0
DWIDTH 9 0
BBX 8 9 0 0
BITMAP
FC
C6
C3
C3
C3
C3
C3
C6
FC
ENDCHAR
STARTCHAR $0045
ENCODING 69
SWIDTH 538 0
DWIDTH 7 0
BBX 6 9 0 0
BITMAP
FC
C0
C0
C0
F8
C0
C0
C0
FC
ENDCHAR
STARTCHAR $0046
ENCODING 70
SWIDTH 538 0
DWIDTH 7 0
BBX 6 9 0 0
BITMAP
FC
C0
C0
C0
F8
C0
C0
C0
C0
ENDCHAR
STARTCHAR $0047
ENCODING 71
SWIDTH 692 0
DWIDTH 9 0
BBX 8 9 0 0
BITMAP
3E
61
C0
C0
CF
C3
C3
63
3E
ENDCHAR
STARTCHAR $0048
ENCODING 72
SWIDTH 692 0
DWIDTH 9 0
BBX 8 9 0 0
BITMAP
C3
C3
C3
C3
FF
C3
C3
C3
C3
ENDCHAR
STARTCHAR $0049
ENCODING 73
SWIDTH 230 0
DWIDTH 3 0
BBX 2 9 0 0
BITMAP
C0
C0
C0
C0
C0
C0
C0
C0
C0
ENDCHAR
STARTCHAR $004A
ENCODING 74
SWIDTH 384 0
DWIDTH 5 0
BBX 4 9 0 0
BITMAP
30
30
30
30
30
30
30
30
E0
ENDCHAR
STARTCHAR $004B
ENCODING 75
SWIDTH 692 0
DWIDTH 9 0
BBX 8 9 0 0
BITMAP
C3
C6
CC
D8
F0
D8
CC
C6
C3
ENDCHAR
STARTCHAR $004C
ENCODING 76
SWIDTH 538 0
DWIDTH 7 0
BBX 6 9 0 0
BITMAP
C0
C0
C0
C0
C0
C0
C0
C0
FC
ENDCHAR
STARTCHAR $004D
ENCODING 77
SWIDTH 769 0
DWIDTH 10 0
BBX 9 9 0 0
BITMAP
4100
6300
E380
F780
F780
DD80
DD80
DD80
C980
ENDCHAR
STARTCHAR $004E
ENCODING 78
SWIDTH 769 0
DWIDTH 10 0
BBX 9 9 0 0
BITMAP
8180
C180
E180
F180
D980
CD80
C780
C380
C180
ENDCHAR
STARTCHAR $004F
ENCODING 79
SWIDTH 769 0
DWIDTH 10 0
BBX 9 9 0 0
BITMAP
3E00
6300
C180
C180
C180
C180
C180
6300
3E00
ENDCHAR
STARTCHAR $0050
ENCODING 80
SWIDTH 538 0
DWIDTH 7 0
BBX 6 9 0 0
BITMAP
F8
CC
CC
CC
F8
C0
C0
C0
C0
ENDCHAR
STARTCHAR $0051
ENCODING 81
SWIDTH 769 0
DWIDTH 10 0
BBX 9 11 0 -2
BITMAP
3E00
6300
C180
C180
C180
C180
C180
6300
3E00
3000
7F80
ENDCHAR
STARTCHAR $0052
ENCODING 82
SWIDTH 615 0
DWIDTH 8 0
BBX 7 9 0 0
BITMAP
F8
CC
CC
CC
F8
D8
CC
CC
C6
ENDCHAR
STARTCHAR $0053
ENCODING 83
SWIDTH 538 0
DWIDTH 7 0
BBX 6 9 0 0
BITMAP
78
C4
C0
E0
78
1C
0C
8C
78
ENDCHAR
STARTCHAR $0054
ENCODING 84
SWIDTH 538 0
DWIDTH 7 0
BBX 6 9 0 0
BITMAP
FC
30
30
30
30
30
30
30
30
ENDCHAR
STARTCHAR $0055
ENCODING 85
SWIDTH 692 0
DWIDTH 9 0
BBX 8 9 0 0
BITMAP
C3
C3
C3
C3
C3
C3
C3
66
3C
ENDCHAR
STARTCHAR $0056
ENCODING 86
SWIDTH 692 0
DWIDTH 9 0
BBX 9 9 0 0
BITMAP
C180
C180
6300
6300
3600
3600
1C00
1C00
0800
ENDCHAR
STARTCHAR $0057
ENCODING 87
SWIDTH 923 0
DWIDTH 12 0
BBX 11 9 0 0
BITMAP
C460
CE60
6EC0
6EC0
3FC0
3B80
3B80
1100
1100
ENDCHAR
STARTCHAR $0058
ENCODING 88
SWIDTH 692 0
DWIDTH 9 0
BBX 9 9 0 0
BITMAP
C180
6300
3600
1C00
1C00
1C00
3600
6300
C180
ENDCHAR
STARTCHAR $0059
ENCODING 89
SWIDTH 692 0
DWIDTH 9 0
BBX 8 9 0 0
BITMAP
C3
66
66
3C
18
18
18
18
18
ENDCHAR
STARTCHAR $005A
ENCODING 90
SWIDTH 692 0
DWIDTH 9 0
BBX 8 9 0 0
BITMAP
7F
06
0C
0C
18
30
30
60
FF
ENDCHAR
STARTCHAR $005B
ENCODING 91
SWIDTH 307 0
DWIDTH 4 0
BBX 3 10 0 -1
BITMAP
E0
C0
C0
C0
C0
C0
C0
C0
C0
E0
ENDCHAR
STARTCHAR $005C
ENCODING 92
SWIDTH 307 0
DWIDTH 4 0
BBX 5 11 -1 -1
BITMAP
C0
C0
60
60
60
70
30
30
30
18
18
ENDCHAR
STARTCHAR $005D
ENCODING 93
SWIDTH 307 0
DWIDTH 4 0
BBX 3 10 0 -1
BITMAP
E0
60
60
60
60
60
60
60
60
E0
ENDCHAR
STARTCHAR $005E
ENCODING 94
SWIDTH 461 0
DWIDTH 6 0
BBX 5 8 0 1
BITMAP
70
88
A8
88
50
50
20
20
ENDCHAR
STARTCHAR $005F
ENCODING 95
SWIDTH 538 0
DWIDTH 7 0
BBX 7 1 0 -2
BITMAP
FE
ENDCHAR
STARTCHAR $0060
ENCODING 96
SWIDTH 538 0
DWIDTH 7 0
BBX 6 8 0 1
BITMAP
FC
8C
58
30
30
68
DC
FC
ENDCHAR
STARTCHAR $0061
ENCODING 97
SWIDTH 615 0
DWIDTH 8 0
BBX 6 6 1 0
BITMAP
74
CC
CC
CC
CC
7C
ENDCHAR
STARTCHAR $0062
ENCODING 98
SWIDTH 615 0
DWIDTH 8 0
BBX 6 10 1 0
BITMAP
C0
C0
C0
C0
F8
CC
CC
CC
CC
F8
ENDCHAR
STARTCHAR $0063
ENCODING 99
SWIDTH 461 0
DWIDTH 6 0
BBX 4 6 1 0
BITMAP
70
D0
C0
C0
D0
70
ENDCHAR
STARTCHAR $0064
ENCODING 100
SWIDTH 615 0
DWIDTH 8 0
BBX 6 10 1 0
BITMAP
0C
0C
0C
0C
7C
CC
CC
CC
CC
7C
ENDCHAR
STARTCHAR $0065
ENCODING 101
SWIDTH 538 0
DWIDTH 7 0
BBX 5 6 1 0
BITMAP
70
D8
D8
F0
C0
78
ENDCHAR
STARTCHAR $0066
ENCODING 102
SWIDTH 384 0
DWIDTH 5 0
BBX 5 10 0 0
BITMAP
18
30
60
60
F0
60
60
60
60
60
ENDCHAR
STARTCHAR $0067
ENCODING 103
SWIDTH 615 0
DWIDTH 8 0
BBX 6 9 1 -3
BITMAP
74
CC
CC
CC
CC
7C
0C
9C
78
ENDCHAR
STARTCHAR $0068
ENCODING 104
SWIDTH 615 0
DWIDTH 8 0
BBX 6 10 1 0
BITMAP
C0
C0
C0
C0
F8
CC
CC
CC
CC
CC
ENDCHAR
STARTCHAR $0069
ENCODING 105
SWIDTH 230 0
DWIDTH 3 0
BBX 2 9 0 0
BITMAP
C0
C0
00
C0
C0
C0
C0
C0
C0
ENDCHAR
STARTCHAR $006A
ENCODING 106
SWIDTH 230 0
DWIDTH 3 0
BBX 4 12 -1 -3
BITMAP
30
30
00
30
30
30
30
30
30
30
60
C0
ENDCHAR
STARTCHAR $006B
ENCODING 107
SWIDTH 538 0
DWIDTH 7 0
BBX 6 10 1 0
BITMAP
C0
C0
C0
C0
CC
D8
F0
D8
D8
CC
ENDCHAR
STARTCHAR $006C
ENCODING 108
SWIDTH 230 0
DWIDTH 3 0
BBX 2 10 0 0
BITMAP
C0
C0
C0
C0
C0
C0
C0
C0
C0
C0
ENDCHAR
STARTCHAR $006D
ENCODING 109
SWIDTH 846 0
DWIDTH 11 0
BBX 8 6 1 0
BITMAP
FE
DB
DB
DB
DB
DB
ENDCHAR
STARTCHAR $006E
ENCODING 110
SWIDTH 615 0
DWIDTH 8 0
BBX 6 6 1 0
BITMAP
F8
CC
CC
CC
CC
CC
ENDCHAR
STARTCHAR $006F
ENCODING 111
SWIDTH 615 0
DWIDTH 8 0
BBX 6 6 1 0
BITMAP
78
CC
CC
CC
CC
78
ENDCHAR
STARTCHAR $0070
ENCODING 112
SWIDTH 615 0
DWIDTH 8 0
BBX 6 9 1 -3
BITMAP
B8
CC
CC
CC
CC
F8
C0
C0
C0
ENDCHAR
STARTCHAR $0071
ENCODING 113
SWIDTH 615 0
DWIDTH 8 0
BBX 6 9 1 -3
BITMAP
74
CC
CC
CC
CC
7C
0C
0C
0C
ENDCHAR
STARTCHAR $0072
ENCODING 114
SWIDTH 384 0
DWIDTH 5 0
BBX 4 6 1 0
BITMAP
D0
E0
C0
C0
C0
C0
ENDCHAR
STARTCHAR $0073
ENCODING 115
SWIDTH 461 0
DWIDTH 6 0
BBX 4 6 1 0
BITMAP
70
C0
E0
70
30
E0
ENDCHAR
STARTCHAR $0074
ENCODING 116
SWIDTH 384 0
DWIDTH 5 0
BBX 5 8 0 0
BITMAP
20
60
F8
60
60
60
60
30
ENDCHAR
STARTCHAR $0075
ENCODING 117
SWIDTH 615 0
DWIDTH 8 0
BBX 6 6 1 0
BITMAP
CC
CC
CC
CC
CC
7C
ENDCHAR
STARTCHAR $0076
ENCODING 118
SWIDTH 538 0
DWIDTH 7 0
BBX 7 6 0 0
BITMAP
C6
6C
6C
38
38
10
ENDCHAR
STARTCHAR $0077
ENCODING 119
SWIDTH 769 0
DWIDTH 10 0
BBX 9 6 0 0
BITMAP
C980
DD80
7F00
7700
3600
2200
ENDCHAR
STARTCHAR $0078
ENCODING 120
SWIDTH 538 0
DWIDTH 7 0
BBX 7 6 0 0
BITMAP
C6
6C
38
38
6C
C6
ENDCHAR
STARTCHAR $0079
ENCODING 121
SWIDTH 538 0
DWIDTH 7 0
BBX 7 9 0 -3
BITMAP
C6
66
6C
3C
38
38
30
70
60
ENDCHAR
STARTCHAR $007A
ENCODING 122
SWIDTH 538 0
DWIDTH 7 0
BBX 6 6 0 0
BITMAP
FC
18
30
30
60
FC
ENDCHAR
STARTCHAR $007B
ENCODING 123
SWIDTH 384 0
DWIDTH 5 0
BBX 4 12 0 -2
BITMAP
30
60
60
60
60
C0
60
60
60
60
60
30
ENDCHAR
STARTCHAR $007C
ENCODING 124
SWIDTH 230 0
DWIDTH 3 0
BBX 1 13 1 -3
BITMAP
80
80
80
80
80
80
80
80
80
80
80
80
80
ENDCHAR
STARTCHAR $007D
ENCODING 125
SWIDTH 384 0
DWIDTH 5 0
BBX 4 12 0 -2
BITMAP
C0
60
60
60
60
30
60
60
60
60
60
C0
ENDCHAR
STARTCHAR $007E
ENCODING 126
SWIDTH 538 0
DWIDTH 7 0
BBX 6 2 0 3
BITMAP
64
98
ENDCHAR
STARTCHAR $00A0
ENCODING 160
SWIDTH 230 0
DWIDTH 3 0
BBX 1 1 0 0
BITMAP
00
ENDCHAR
STARTCHAR $00A1
ENCODING 161
SWIDTH 1076 0
DWIDTH 14 0
BBX 13 8 0 0
BITMAP
0F80
1DC0
3FE0
7DF0
FFF8
FDF8
FDF8
FFF8
ENDCHAR
STARTCHAR $00A2
ENCODING 162
SWIDTH 461 0
DWIDTH 6 0
BBX 5 8 0 1
BITMAP
30
70
60
F8
30
60
40
80
ENDCHAR
STARTCHAR $00A3
ENCODING 163
SWIDTH 538 0
DWIDTH 13 0
BBX 9 10 1 1
BITMAP
3E00
4100
8080
8280
8680
AC80
B880
9080
4100
3E00
ENDCHAR
STARTCHAR $00A4
ENCODING 164
SWIDTH 538 0
DWIDTH 13 0
BBX 9 10 1 1
BITMAP
3E00
4100
8080
9480
8880
8880
9480
8080
4100
3E00
ENDCHAR
STARTCHAR $00A5
ENCODING 165
SWIDTH 846 0
DWIDTH 11 0
BBX 10 10 0 1
BITMAP
4880
D540
5540
5540
5540
4880
0000
5280
6540
5540
ENDCHAR
STARTCHAR $00A6
ENCODING 166
SWIDTH 230 0
DWIDTH 13 0
BBX 12 12 0 0
BITMAP
1000
2800
2B00
3800
3A00
3810
54A0
BAC0
BAE0
BA00
4400
3800
ENDCHAR
STARTCHAR $00A7
ENCODING 167
SWIDTH 538 0
DWIDTH 13 0
BBX 12 12 0 0
BITMAP
1380
2800
2B00
3800
3A00
3870
5430
BA50
BA80
BA00
4400
3800
ENDCHAR
STARTCHAR $00A8
ENCODING 168
SWIDTH 1000 0
DWIDTH 13 0
BBX 11 11 1 0
BITMAP
8420
4440
2080
0E00
2F00
5360
4100
8200
9280
6C40
0020
ENDCHAR
STARTCHAR $00A9
ENCODING 169
SWIDTH 769 0
DWIDTH 13 0
BBX 11 11 1 0
BITMAP
4A40
C460
2480
1500
8A20
71C0
8A20
1500
2480
C460
4A40
ENDCHAR
STARTCHAR $00AA
ENCODING 170
SWIDTH 461 0
DWIDTH 13 0
BBX 11 11 1 0
BITMAP
8420
4440
2080
0E00
1F00
DF60
1F00
0E00
2080
4440
8420
ENDCHAR
STARTCHAR $00AB
ENCODING 171
SWIDTH 769 0
DWIDTH 10 0
BBX 9 10 0 0
BITMAP
2F00
7080
FF00
6080
8080
AA80
AA80
AA80
8080
7F00
ENDCHAR
STARTCHAR $00AC
ENCODING 172
SWIDTH 538 0
DWIDTH 7 0
BBX 5 5 1 3
BITMAP
80
40
28
18
38
ENDCHAR
STARTCHAR $00AD
ENCODING 173
SWIDTH 384 0
DWIDTH 5 0
BBX 4 1 0 3
BITMAP
F0
ENDCHAR
STARTCHAR $00AE
ENCODING 174
SWIDTH 923 0
DWIDTH 12 0
BBX 11 10 0 0
BITMAP
0020
3860
3CE0
9FE0
CFE0
E7E0
73C0
7980
5C00
8E00
ENDCHAR
STARTCHAR $00AF
ENCODING 175
SWIDTH 846 0
DWIDTH 11 0
BBX 9 5 1 1
BITMAP
8000
A500
CA80
AA80
A880
ENDCHAR
STARTCHAR $00B0
ENCODING 176
SWIDTH 538 0
DWIDTH 7 0
BBX 7 9 -1 1
BITMAP
60
90
90
66
08
08
08
08
06
ENDCHAR
STARTCHAR $00B1
ENCODING 177
SWIDTH 461 0
DWIDTH 6 0
BBX 4 5 1 1
BITMAP
30
50
50
50
90
ENDCHAR
STARTCHAR $00B2
ENCODING 178
SWIDTH 384 0
DWIDTH 5 0
BBX 3 5 1 1
BITMAP
A0
A0
A0
60
20
ENDCHAR
STARTCHAR $00B3
ENCODING 179
SWIDTH 384 0
DWIDTH 5 0
BBX 3 6 1 1
BITMAP
80
80
C0
A0
A0
A0
ENDCHAR
STARTCHAR $00B4
ENCODING 180
SWIDTH 307 0
DWIDTH 4 0
BBX 2 5 1 1
BITMAP
80
80
80
80
40
ENDCHAR
STARTCHAR $00B5
ENCODING 181
SWIDTH 538 0
DWIDTH 7 0
BBX 6 9 1 -3
BITMAP
CC
CC
CC
CC
CC
FC
C0
C0
C0
ENDCHAR
STARTCHAR $00B6
ENCODING 182
SWIDTH 923 0
DWIDTH 12 0
BBX 11 12 0 -1
BITMAP
2A00
4900
2200
0000
7F00
FFC0
FFA0
7F20
3EC0
1C00
0000
FFC0
ENDCHAR
STARTCHAR $00B7
ENCODING 183
SWIDTH 538 0
DWIDTH 7 0
BBX 7 10 0 0
BITMAP
26
50
56
50
74
70
F8
F8
F8
70
ENDCHAR
STARTCHAR $00B8
ENCODING 184
SWIDTH 384 0
DWIDTH 5 0
BBX 3 3 1 -3
BITMAP
60
20
C0
ENDCHAR
STARTCHAR $00B9
ENCODING 185
SWIDTH 461 0
DWIDTH 6 0
BBX 5 8 0 0
BITMAP
70
88
88
A8
70
70
70
20
ENDCHAR
STARTCHAR $00BA
ENCODING 186
SWIDTH 384 0
DWIDTH 5 0
BBX 4 4 0 6
BITMAP
60
90
90
60
ENDCHAR
STARTCHAR $00BB
ENCODING 187
SWIDTH 769 0
DWIDTH 10 0
BBX 9 10 0 0
BITMAP
FF80
4900
7F00
8080
AA80
AA80
AA80
8080
4100
FF80
ENDCHAR
STARTCHAR $00BC
ENCODING 188
SWIDTH 769 0
DWIDTH 10 0
BBX 9 9 0 0
BITMAP
C180
E380
7700
3E00
0C00
3600
F700
A380
E180
ENDCHAR
STARTCHAR $00BD
ENCODING 189
SWIDTH 769 0
DWIDTH 10 0
BBX 9 10 0 0
BITMAP
0300
0780
0600
0780
0F00
1C00
3800
7000
E000
C000
ENDCHAR
STARTCHAR $00BE
ENCODING 190
SWIDTH 846 0
DWIDTH 11 0
BBX 10 10 0 0
BITMAP
7000
FA00
8B00
8980
F940
F980
F900
FC80
FA80
F900
ENDCHAR
STARTCHAR $00BF
ENCODING 191
SWIDTH 1076 0
DWIDTH 14 0
BBX 13 8 0 0
BITMAP
1FC0
2020
4010
7FF0
B068
98C8
7FF0
6030
ENDCHAR
STARTCHAR $00C0
ENCODING 192
SWIDTH 692 0
DWIDTH 9 0
BBX 9 12 0 0
BITMAP
1800
0C00
0000
0800
1C00
1C00
3600
3600
6300
7F00
C180
C180
ENDCHAR
STARTCHAR $00C1
ENCODING 193
SWIDTH 692 0
DWIDTH 9 0
BBX 9 12 0 0
BITMAP
0600
0C00
0000
0800
1C00
1C00
3600
3600
6300
7F00
C180
C180
ENDCHAR
STARTCHAR $00C2
ENCODING 194
SWIDTH 692 0
DWIDTH 9 0
BBX 9 12 0 0
BITMAP
0800
1400
0000
0800
1C00
1C00
3600
3600
6300
7F00
C180
C180
ENDCHAR
STARTCHAR $00C3
ENCODING 195
SWIDTH 692 0
DWIDTH 9 0
BBX 9 12 0 0
BITMAP
1A00
2C00
0000
0800
1C00
1C00
3600
3600
6300
7F00
C180
C180
ENDCHAR
STARTCHAR $00C4
ENCODING 196
SWIDTH 692 0
DWIDTH 9 0
BBX 9 12 0 0
BITMAP
3600
3600
0000
0800
1C00
1C00
3600
3600
6300
7F00
C180
C180
ENDCHAR
STARTCHAR $00C5
ENCODING 197
SWIDTH 692 0
DWIDTH 9 0
BBX 9 13 0 0
BITMAP
0800
1400
0800
0000
0800
1C00
1C00
3600
3600
6300
7F00
C180
C180
ENDCHAR
STARTCHAR $00C6
ENCODING 198
SWIDTH 923 0
DWIDTH 12 0
BBX 10 9 1 0
BITMAP
0FC0
1E00
1E00
3600
3780
6600
7E00
C600
C7C0
ENDCHAR
STARTCHAR $00C7
ENCODING 199
SWIDTH 615 0
DWIDTH 8 0
BBX 7 12 0 -3
BITMAP
3C
62
C0
C0
C0
C0
C0
62
3C
18
08
30
ENDCHAR
STARTCHAR $00C8
ENCODING 200
SWIDTH 538 0
DWIDTH 7 0
BBX 6 12 0 0
BITMAP
60
30
00
FC
C0
C0
C0
F8
C0
C0
C0
FC
ENDCHAR
STARTCHAR $00C9
ENCODING 201
SWIDTH 538 0
DWIDTH 7 0
BBX 6 12 0 0
BITMAP
18
30
00
FC
C0
C0
C0
F8
C0
C0
C0
FC
ENDCHAR
STARTCHAR $00CA
ENCODING 202
SWIDTH 538 0
DWIDTH 7 0
BBX 6 12 0 0
BITMAP
10
28
00
FC
C0
C0
C0
F8
C0
C0
C0
FC
ENDCHAR
STARTCHAR $00CB
ENCODING 203
SWIDTH 538 0
DWIDTH 7 0
BBX 6 12 0 0
BITMAP
6C
6C
00
FC
C0
C0
C0
F8
C0
C0
C0
FC
ENDCHAR
STARTCHAR $00CC
ENCODING 204
SWIDTH 230 0
DWIDTH 3 0
BBX 3 12 -1 0
BITMAP
C0
60
00
60
60
60
60
60
60
60
60
60
ENDCHAR
STARTCHAR $00CD
ENCODING 205
SWIDTH 230 0
DWIDTH 3 0
BBX 3 12 0 0
BITMAP
60
C0
00
C0
C0
C0
C0
C0
C0
C0
C0
C0
ENDCHAR
STARTCHAR $00CE
ENCODING 206
SWIDTH 230 0
DWIDTH 3 0
BBX 3 12 0 0
BITMAP
40
A0
00
C0
C0
C0
C0
C0
C0
C0
C0
C0
ENDCHAR
STARTCHAR $00CF
ENCODING 207
SWIDTH 230 0
DWIDTH 3 0
BBX 5 12 -1 0
BITMAP
D8
D8
00
60
60
60
60
60
60
60
60
60
ENDCHAR
STARTCHAR $00D0
ENCODING 208
SWIDTH 692 0
DWIDTH 9 0
BBX 9 9 -1 0
BITMAP
7E00
6300
6180
6180
F980
6180
6180
6300
7E00
ENDCHAR
STARTCHAR $00D1
ENCODING 209
SWIDTH 769 0
DWIDTH 10 0
BBX 9 12 0 0
BITMAP
1A00
2C00
0000
8180
C180
E180
F180
D980
CD80
C780
C380
C180
ENDCHAR
STARTCHAR $00D2
ENCODING 210
SWIDTH 769 0
DWIDTH 10 0
BBX 9 12 0 0
BITMAP
1800
0C00
0000
3E00
6300
C180
C180
C180
C180
C180
6300
3E00
ENDCHAR
STARTCHAR $00D3
ENCODING 211
SWIDTH 769 0
DWIDTH 10 0
BBX 9 12 0 0
BITMAP
0600
0C00
0000
3E00
6300
C180
C180
C180
C180
C180
6300
3E00
ENDCHAR
STARTCHAR $00D4
ENCODING 212
SWIDTH 769 0
DWIDTH 10 0
BBX 9 12 0 0
BITMAP
0800
1400
0000
3E00
6300
C180
C180
C180
C180
C180
6300
3E00
ENDCHAR
STARTCHAR $00D5
ENCODING 213
SWIDTH 769 0
DWIDTH 10 0
BBX 9 12 0 0
BITMAP
1A00
2C00
0000
3E00
6300
C180
C180
C180
C180
C180
6300
3E00
ENDCHAR
STARTCHAR $00D6
ENCODING 214
SWIDTH 769 0
DWIDTH 10 0
BBX 9 12 0 0
BITMAP
3600
3600
0000
3E00
6300
C180
C180
C180
C180
C180
6300
3E00
ENDCHAR
STARTCHAR $00D7
ENCODING 215
SWIDTH 538 0
DWIDTH 7 0
BBX 6 8 0 1
BITMAP
78
FC
00
78
78
78
78
78
ENDCHAR
STARTCHAR $00D8
ENCODING 216
SWIDTH 769 0
DWIDTH 10 0
BBX 9 9 0 0
BITMAP
3E80
6300
C380
C580
C980
D180
E180
6300
9E00
ENDCHAR
STARTCHAR $00D9
ENCODING 217
SWIDTH 692 0
DWIDTH 9 0
BBX 8 12 0 0
BITMAP
30
18
00
C3
C3
C3
C3
C3
C3
C3
66
3C
ENDCHAR
STARTCHAR $00DA
ENCODING 218
SWIDTH 692 0
DWIDTH 9 0
BBX 8 12 0 0
BITMAP
0C
18
00
C3
C3
C3
C3
C3
C3
C3
66
3C
ENDCHAR
STARTCHAR $00DB
ENCODING 219
SWIDTH 692 0
DWIDTH 9 0
BBX 8 12 0 0
BITMAP
08
14
00
C3
C3
C3
C3
C3
C3
C3
66
3C
ENDCHAR
STARTCHAR $00DC
ENCODING 220
SWIDTH 692 0
DWIDTH 9 0
BBX 8 12 0 0
BITMAP
36
36
00
C3
C3
C3
C3
C3
C3
C3
66
3C
ENDCHAR
STARTCHAR $00DD
ENCODING 221
SWIDTH 692 0
DWIDTH 9 0
BBX 8 12 0 0
BITMAP
0C
18
00
C3
66
66
3C
18
18
18
18
18
ENDCHAR
STARTCHAR $00DE
ENCODING 222
SWIDTH 538 0
DWIDTH 7 0
BBX 6 9 0 0
BITMAP
C0
F8
CC
CC
CC
CC
F8
C0
C0
ENDCHAR
STARTCHAR $00DF
ENCODING 223
SWIDTH 615 0
DWIDTH 8 0
BBX 6 10 1 0
BITMAP
70
D8
D8
D8
F8
CC
CC
CC
CC
F8
ENDCHAR
STARTCHAR $00E0
ENCODING 224
SWIDTH 615 0
DWIDTH 8 0
BBX 6 9 1 0
BITMAP
60
30
00
74
CC
CC
CC
CC
7C
ENDCHAR
STARTCHAR $00E1
ENCODING 225
SWIDTH 615 0
DWIDTH 8 0
BBX 6 9 1 0
BITMAP
18
30
00
74
CC
CC
CC
CC
7C
ENDCHAR
STARTCHAR $00E2
ENCODING 226
SWIDTH 615 0
DWIDTH 8 0
BBX 6 9 1 0
BITMAP
10
28
00
74
CC
CC
CC
CC
7C
ENDCHAR
STARTCHAR $00E3
ENCODING 227
SWIDTH 615 0
DWIDTH 8 0
BBX 6 9 1 0
BITMAP
34
58
00
74
CC
CC
CC
CC
7C
ENDCHAR
STARTCHAR $00E4
ENCODING 228
SWIDTH 615 0
DWIDTH 8 0
BBX 6 9 1 0
BITMAP
6C
6C
00
74
CC
CC
CC
CC
7C
ENDCHAR
STARTCHAR $00E5
ENCODING 229
SWIDTH 615 0
DWIDTH 8 0
BBX 6 10 1 0
BITMAP
10
28
10
00
74
CC
CC
CC
CC
7C
ENDCHAR
STARTCHAR $00E6
ENCODING 230
SWIDTH 923 0
DWIDTH 12 0
BBX 10 6 1 0
BITMAP
7F80
CCC0
CCC0
CF00
CC00
73C0
ENDCHAR
STARTCHAR $00E7
ENCODING 231
SWIDTH 461 0
DWIDTH 6 0
BBX 4 9 1 -3
BITMAP
70
D0
C0
C0
D0
70
60
20
C0
ENDCHAR
STARTCHAR $00E8
ENCODING 232
SWIDTH 538 0
DWIDTH 7 0
BBX 5 9 1 0
BITMAP
60
30
00
70
D8
D8
F0
C0
78
ENDCHAR
STARTCHAR $00E9
ENCODING 233
SWIDTH 538 0
DWIDTH 7 0
BBX 5 9 1 0
BITMAP
18
30
00
70
D8
D8
F0
C0
78
ENDCHAR
STARTCHAR $00EA
ENCODING 234
SWIDTH 538 0
DWIDTH 7 0
BBX 5 9 1 0
BITMAP
20
50
00
70
D8
D8
F0
C0
78
ENDCHAR
STARTCHAR $00EB
ENCODING 235
SWIDTH 538 0
DWIDTH 7 0
BBX 5 9 1 0
BITMAP
D8
D8
00
70
D8
D8
F0
C0
78
ENDCHAR
STARTCHAR $00EC
ENCODING 236
SWIDTH 230 0
DWIDTH 3 0
BBX 3 9 -1 0
BITMAP
C0
60
00
60
60
60
60
60
60
ENDCHAR
STARTCHAR $00ED
ENCODING 237
SWIDTH 230 0
DWIDTH 3 0
BBX 3 9 0 0
BITMAP
60
C0
00
C0
C0
C0
C0
C0
C0
ENDCHAR
STARTCHAR $00EE
ENCODING 238
SWIDTH 230 0
DWIDTH 3 0
BBX 3 9 0 0
BITMAP
40
A0
00
C0
C0
C0
C0
C0
C0
ENDCHAR
STARTCHAR $00EF
ENCODING 239
SWIDTH 230 0
DWIDTH 3 0
BBX 5 9 -1 0
BITMAP
D8
D8
00
60
60
60
60
60
60
ENDCHAR
STARTCHAR $00F0
ENCODING 240
SWIDTH 615 0
DWIDTH 8 0
BBX 6 10 1 0
BITMAP
34
18
28
0C
7C
CC
CC
CC
CC
78
ENDCHAR
STARTCHAR $00F1
ENCODING 241
SWIDTH 615 0
DWIDTH 8 0
BBX 6 9 1 0
BITMAP
34
58
00
F8
CC
CC
CC
CC
CC
ENDCHAR
STARTCHAR $00F2
ENCODING 242
SWIDTH 615 0
DWIDTH 8 0
BBX 6 9 1 0
BITMAP
60
30
00
78
CC
CC
CC
CC
78
ENDCHAR
STARTCHAR $00F3
ENCODING 243
SWIDTH 615 0
DWIDTH 8 0
BBX 6 9 1 0
BITMAP
18
30
00
78
CC
CC
CC
CC
78
ENDCHAR
STARTCHAR $00F4
ENCODING 244
SWIDTH 615 0
DWIDTH 8 0
BBX 6 9 1 0
BITMAP
10
28
00
78
CC
CC
CC
CC
78
ENDCHAR
STARTCHAR $00F5
ENCODING 245
SWIDTH 615 0
DWIDTH 8 0
BBX 6 9 1 0
BITMAP
34
58
00
78
CC
CC
CC
CC
78
ENDCHAR
STARTCHAR $00F6
ENCODING 246
SWIDTH 615 0
DWIDTH 8 0
BBX 6 9 1 0
BITMAP
6C
6C
00
78
CC
CC
CC
CC
78
ENDCHAR
STARTCHAR $00F7
ENCODING 247
SWIDTH 307 0
DWIDTH 4 0
BBX 3 6 0 1
BITMAP
80
80
40
40
20
20
ENDCHAR
STARTCHAR $00F8
ENCODING 248
SWIDTH 615 0
DWIDTH 8 0
BBX 6 6 1 1
BITMAP
34
48
94
A4
48
B0
ENDCHAR
STARTCHAR $00F9
ENCODING 249
SWIDTH 615 0
DWIDTH 8 0
BBX 6 9 1 0
BITMAP
60
30
00
CC
CC
CC
CC
CC
7C
ENDCHAR
STARTCHAR $00FA
ENCODING 250
SWIDTH 615 0
DWIDTH 8 0
BBX 6 9 1 0
BITMAP
18
30
00
CC
CC
CC
CC
CC
7C
ENDCHAR
STARTCHAR $00FB
ENCODING 251
SWIDTH 615 0
DWIDTH 8 0
BBX 6 9 1 0
BITMAP
10
28
00
CC
CC
CC
CC
CC
7C
ENDCHAR
STARTCHAR $00FC
ENCODING 252
SWIDTH 615 0
DWIDTH 8 0
BBX 6 9 1 0
BITMAP
6C
6C
00
CC
CC
CC
CC
CC
7C
ENDCHAR
STARTCHAR $00FD
ENCODING 253
SWIDTH 538 0
DWIDTH 7 0
BBX 7 12 0 -3
BITMAP
0C
18
00
C6
66
6C
3C
38
38
30
70
60
ENDCHAR
STARTCHAR $00FE
ENCODING 254
SWIDTH 615 0
DWIDTH 8 0
BBX 6 13 1 -3
BITMAP
C0
C0
C0
C0
F8
CC
CC
CC
CC
F8
C0
C0
C0
ENDCHAR
STARTCHAR $00FF
ENCODING 255
SWIDTH 538 0
DWIDTH 7 0
BBX 7 12 0 -3
BITMAP
6C
6C
00
C6
66
6C
3C
38
38
30
70
60
ENDCHAR
STARTCHAR $0100
ENCODING 256
SWIDTH 692 0
DWIDTH 9 0
BBX 9 11 0 0
BITMAP
1E00
0000
0800
1C00
1C00
3600
3600
6300
7F00
C180
C180
ENDCHAR
STARTCHAR $0101
ENCODING 257
SWIDTH 615 0
DWIDTH 8 0
BBX 6 8 1 0
BITMAP
78
00
74
CC
CC
CC
CC
7C
ENDCHAR
STARTCHAR $0102
ENCODING 258
SWIDTH 692 0
DWIDTH 9 0
BBX 9 12 0 0
BITMAP
1200
0C00
0000
0800
1C00
1C00
3600
3600
6300
7F00
C180
C180
ENDCHAR
STARTCHAR $0103
ENCODING 259
SWIDTH 615 0
DWIDTH 8 0
BBX 6 9 1 0
BITMAP
48
30
00
74
CC
CC
CC
CC
7C
ENDCHAR
STARTCHAR $0104
ENCODING 260
SWIDTH 692 0
DWIDTH 9 0
BBX 9 12 0 -3
BITMAP
0800
1C00
1C00
3600
3600
6300
7F00
C180
C180
0100
0200
0180
ENDCHAR
STARTCHAR $0105
ENCODING 261
SWIDTH 615 0
DWIDTH 8 0
BBX 6 9 1 -3
BITMAP
74
CC
CC
CC
CC
7C
08
10
0C
ENDCHAR
STARTCHAR $0106
ENCODING 262
SWIDTH 615 0
DWIDTH 8 0
BBX 7 12 0 0
BITMAP
0C
18
00
3C
62
C0
C0
C0
C0
C0
62
3C
ENDCHAR
STARTCHAR $0107
ENCODING 263
SWIDTH 461 0
DWIDTH 6 0
BBX 5 9 1 0
BITMAP
18
30
00
70
D0
C0
C0
D0
70
ENDCHAR
STARTCHAR $010C
ENCODING 268
SWIDTH 615 0
DWIDTH 8 0
BBX 7 12 0 0
BITMAP
14
08
00
3C
62
C0
C0
C0
C0
C0
62
3C
ENDCHAR
STARTCHAR $010D
ENCODING 269
SWIDTH 461 0
DWIDTH 6 0
BBX 4 9 1 0
BITMAP
50
20
00
70
D0
C0
C0
D0
70
ENDCHAR
STARTCHAR $010E
ENCODING 270
SWIDTH 692 0
DWIDTH 9 0
BBX 8 12 0 0
BITMAP
28
10
00
FC
C6
C3
C3
C3
C3
C3
C6
FC
ENDCHAR
STARTCHAR $010F
ENCODING 271
SWIDTH 769 0
DWIDTH 10 0
BBX 9 10 1 0
BITMAP
0D80
0D80
0C80
0D00
7C00
CC00
CC00
CC00
CC00
7C00
ENDCHAR
STARTCHAR $0110
ENCODING 272
SWIDTH 692 0
DWIDTH 9 0
BBX 9 9 -1 0
BITMAP
7E00
6300
6180
6180
F980
6180
6180
6300
7E00
ENDCHAR
STARTCHAR $0111
ENCODING 273
SWIDTH 615 0
DWIDTH 8 0
BBX 7 10 1 0
BITMAP
0C
0C
3E
0C
7C
CC
CC
CC
CC
7C
ENDCHAR
STARTCHAR $0112
ENCODING 274
SWIDTH 538 0
DWIDTH 7 0
BBX 6 11 0 0
BITMAP
78
00
FC
C0
C0
C0
F8
C0
C0
C0
FC
ENDCHAR
STARTCHAR $0113
ENCODING 275
SWIDTH 538 0
DWIDTH 7 0
BBX 5 8 1 0
BITMAP
78
00
70
D8
D8
F0
C0
78
ENDCHAR
STARTCHAR $0116
ENCODING 278
SWIDTH 538 0
DWIDTH 7 0
BBX 6 12 0 0
BITMAP
30
30
00
FC
C0
C0
C0
F8
C0
C0
C0
FC
ENDCHAR
STARTCHAR $0117
ENCODING 279
SWIDTH 538 0
DWIDTH 7 0
BBX 5 9 1 0
BITMAP
30
30
00
70
D8
D8
F0
C0
78
ENDCHAR
STARTCHAR $0118
ENCODING 280
SWIDTH 538 0
DWIDTH 7 0
BBX 6 12 0 -3
BITMAP
FC
C0
C0
C0
F8
C0
C0
C0
FC
08
10
0C
ENDCHAR
STARTCHAR $0119
ENCODING 281
SWIDTH 538 0
DWIDTH 7 0
BBX 6 9 1 -3
BITMAP
70
D8
D8
F0
C0
78
10
10
0C
ENDCHAR
STARTCHAR $011A
ENCODING 282
SWIDTH 538 0
DWIDTH 7 0
BBX 6 12 0 0
BITMAP
28
10
00
FC
C0
C0
C0
F8
C0
C0
C0
FC
ENDCHAR
STARTCHAR $011B
ENCODING 283
SWIDTH 538 0
DWIDTH 7 0
BBX 5 9 1 0
BITMAP
50
20
00
70
D8
D8
F0
C0
78
ENDCHAR
STARTCHAR $011E
ENCODING 286
SWIDTH 692 0
DWIDTH 9 0
BBX 8 11 0 0
BITMAP
12
0C
3E
61
C0
C0
CF
C3
C3
63
3E
ENDCHAR
STARTCHAR $011F
ENCODING 287
SWIDTH 615 0
DWIDTH 8 0
BBX 6 12 1 -3
BITMAP
48
30
00
74
CC
CC
CC
CC
7C
0C
9C
78
ENDCHAR
STARTCHAR $0122
ENCODING 290
SWIDTH 692 0
DWIDTH 9 0
BBX 8 12 0 -3
BITMAP
3E
61
C0
C0
CF
C3
C3
63
3E
00
0C
08
ENDCHAR
STARTCHAR $0123
ENCODING 291
SWIDTH 615 0
DWIDTH 8 0
BBX 6 12 1 -3
BITMAP
20
30
00
74
CC
CC
CC
CC
7C
0C
9C
78
ENDCHAR
STARTCHAR $012A
ENCODING 298
SWIDTH 230 0
DWIDTH 3 0
BBX 4 11 -1 0
BITMAP
F0
00
60
60
60
60
60
60
60
60
60
ENDCHAR
STARTCHAR $012B
ENCODING 299
SWIDTH 230 0
DWIDTH 3 0
BBX 4 8 -1 0
BITMAP
F0
00
60
60
60
60
60
60
ENDCHAR
STARTCHAR $012E
ENCODING 302
SWIDTH 230 0
DWIDTH 3 0
BBX 3 12 0 -3
BITMAP
C0
C0
C0
C0
C0
C0
C0
C0
C0
80
80
60
ENDCHAR
STARTCHAR $012F
ENCODING 303
SWIDTH 230 0
DWIDTH 3 0
BBX 3 12 -1 -3
BITMAP
60
60
00
60
60
60
60
60
60
40
80
60
ENDCHAR
STARTCHAR $0130
ENCODING 304
SWIDTH 230 0
DWIDTH 3 0
BBX 2 11 0 0
BITMAP
C0
C0
C0
C0
C0
C0
C0
C0
C0
C0
C0
ENDCHAR
STARTCHAR $0131
ENCODING 305
SWIDTH 230 0
DWIDTH 3 0
BBX 2 6 0 0
BITMAP
C0
C0
C0
C0
C0
C0
ENDCHAR
STARTCHAR $0136
ENCODING 310
SWIDTH 692 0
DWIDTH 9 0
BBX 8 12 0 -3
BITMAP
C3
C6
CC
D8
F0
D8
CC
C6
C3
00
18
10
ENDCHAR
STARTCHAR $0137
ENCODING 311
SWIDTH 538 0
DWIDTH 7 0
BBX 6 13 1 -3
BITMAP
C0
C0
C0
C0
CC
D8
F0
D8
D8
CC
00
30
20
ENDCHAR
STARTCHAR $0139
ENCODING 313
SWIDTH 538 0
DWIDTH 7 0
BBX 6 12 0 0
BITMAP
30
60
00
C0
C0
C0
C0
C0
C0
C0
C0
FC
ENDCHAR
STARTCHAR $013A
ENCODING 314
SWIDTH 230 0
DWIDTH 3 0
BBX 3 12 0 0
BITMAP
60
C0
C0
C0
C0
C0
C0
C0
C0
C0
C0
C0
ENDCHAR
STARTCHAR $013B
ENCODING 315
SWIDTH 538 0
DWIDTH 7 0
BBX 6 12 0 -3
BITMAP
C0
C0
C0
C0
C0
C0
C0
C0
FC
00
30
20
ENDCHAR
STARTCHAR $013C
ENCODING 316
SWIDTH 230 0
DWIDTH 3 0
BBX 2 13 0 -3
BITMAP
C0
C0
C0
C0
C0
C0
C0
C0
C0
C0
00
C0
80
ENDCHAR
STARTCHAR $013D
ENCODING 317
SWIDTH 538 0
DWIDTH 7 0
BBX 6 9 0 0
BITMAP
CC
CC
C4
C8
C0
C0
C0
C0
FC
ENDCHAR
STARTCHAR $013E
ENCODING 318
SWIDTH 384 0
DWIDTH 5 0
BBX 5 10 0 0
BITMAP
D8
D8
C8
D0
C0
C0
C0
C0
C0
C0
ENDCHAR
STARTCHAR $0141
ENCODING 321
SWIDTH 538 0
DWIDTH 7 0
BBX 7 9 -1 0
BITMAP
60
60
68
70
60
60
E0
60
7E
ENDCHAR
STARTCHAR $0142
ENCODING 322
SWIDTH 230 0
DWIDTH 3 0
BBX 4 10 -1 0
BITMAP
60
60
60
60
70
E0
60
60
60
60
ENDCHAR
STARTCHAR $0143
ENCODING 323
SWIDTH 769 0
DWIDTH 10 0
BBX 9 12 0 0
BITMAP
0600
0C00
0000
8180
C180
E180
F180
D980
CD80
C780
C380
C180
ENDCHAR
STARTCHAR $0144
ENCODING 324
SWIDTH 615 0
DWIDTH 8 0
BBX 6 9 1 0
BITMAP
18
30
00
F8
CC
CC
CC
CC
CC
ENDCHAR
STARTCHAR $0145
ENCODING 325
SWIDTH 769 0
DWIDTH 10 0
BBX 9 12 0 -3
BITMAP
8180
C180
E180
F180
D980
CD80
C780
C380
C180
0000
0C00
0800
ENDCHAR
STARTCHAR $0146
ENCODING 326
SWIDTH 615 0
DWIDTH 8 0
BBX 6 9 1 -3
BITMAP
F8
CC
CC
CC
CC
CC
00
30
20
ENDCHAR
STARTCHAR $0147
ENCODING 327
SWIDTH 769 0
DWIDTH 10 0
BBX 9 12 0 0
BITMAP
1400
0800
0000
8180
C180
E180
F180
D980
CD80
C780
C380
C180
ENDCHAR
STARTCHAR $0148
ENCODING 328
SWIDTH 615 0
DWIDTH 8 0
BBX 6 9 1 0
BITMAP
28
10
00
F8
CC
CC
CC
CC
CC
ENDCHAR
STARTCHAR $014C
ENCODING 332
SWIDTH 769 0
DWIDTH 10 0
BBX 9 11 0 0
BITMAP
1E00
0000
3E00
6300
C180
C180
C180
C180
C180
6300
3E00
ENDCHAR
STARTCHAR $014D
ENCODING 333
SWIDTH 615 0
DWIDTH 8 0
BBX 6 8 1 0
BITMAP
78
00
78
CC
CC
CC
CC
78
ENDCHAR
STARTCHAR $0150
ENCODING 336
SWIDTH 769 0
DWIDTH 10 0
BBX 9 12 0 0
BITMAP
0D80
1B00
0000
3E00
6300
C180
C180
C180
C180
C180
6300
3E00
ENDCHAR
STARTCHAR $0151
ENCODING 337
SWIDTH 615 0
DWIDTH 8 0
BBX 7 9 1 0
BITMAP
36
6C
00
78
CC
CC
CC
CC
78
ENDCHAR
STARTCHAR $0152
ENCODING 338
SWIDTH 1076 0
DWIDTH 14 0
BBX 13 9 0 0
BITMAP
3DF8
6380
C180
C180
C1F0
C180
C180
6380
3DF8
ENDCHAR
STARTCHAR $0153
ENCODING 339
SWIDTH 923 0
DWIDTH 12 0
BBX 10 6 1 0
BITMAP
7380
CCC0
CCC0
CF00
CC00
73C0
ENDCHAR
STARTCHAR $0154
ENCODING 340
SWIDTH 615 0
DWIDTH 8 0
BBX 7 12 0 0
BITMAP
18
30
00
F8
CC
CC
CC
F8
D8
CC
CC
C6
ENDCHAR
STARTCHAR $0155
ENCODING 341
SWIDTH 384 0
DWIDTH 5 0
BBX 4 9 1 0
BITMAP
30
60
00
D0
E0
C0
C0
C0
C0
ENDCHAR
STARTCHAR $0156
ENCODING 342
SWIDTH 615 0
DWIDTH 8 0
BBX 7 12 0 -3
BITMAP
F8
CC
CC
CC
F8
D8
CC
CC
C6
00
18
10
ENDCHAR
STARTCHAR $0157
ENCODING 343
SWIDTH 384 0
DWIDTH 5 0
BBX 4 9 1 -3
BITMAP
D0
E0
C0
C0
C0
C0
00
60
40
ENDCHAR
STARTCHAR $0158
ENCODING 344
SWIDTH 615 0
DWIDTH 8 0
BBX 7 12 0 0
BITMAP
28
10
00
F8
CC
CC
CC
F8
D8
CC
CC
C6
ENDCHAR
STARTCHAR $0159
ENCODING 345
SWIDTH 384 0
DWIDTH 5 0
BBX 4 9 1 0
BITMAP
50
20
00
D0
E0
C0
C0
C0
C0
ENDCHAR
STARTCHAR $015A
ENCODING 346
SWIDTH 538 0
DWIDTH 7 0
BBX 6 12 0 0
BITMAP
18
30
00
78
C4
C0
E0
78
1C
0C
8C
78
ENDCHAR
STARTCHAR $015B
ENCODING 347
SWIDTH 461 0
DWIDTH 6 0
BBX 4 9 1 0
BITMAP
30
60
00
70
C0
E0
70
30
E0
ENDCHAR
STARTCHAR $015E
ENCODING 350
SWIDTH 538 0
DWIDTH 7 0
BBX 6 12 0 -3
BITMAP
78
C4
C0
E0
78
1C
0C
8C
78
00
30
20
ENDCHAR
STARTCHAR $015F
ENCODING 351
SWIDTH 461 0
DWIDTH 6 0
BBX 4 9 1 -3
BITMAP
70
C0
E0
70
30
E0
00
60
40
ENDCHAR
STARTCHAR $0160
ENCODING 352
SWIDTH 538 0
DWIDTH 7 0
BBX 6 12 0 0
BITMAP
28
10
00
78
C4
C0
E0
78
1C
0C
8C
78
ENDCHAR
STARTCHAR $0161
ENCODING 353
SWIDTH 461 0
DWIDTH 6 0
BBX 4 9 1 0
BITMAP
50
20
00
70
C0
E0
70
30
E0
ENDCHAR
STARTCHAR $0162
ENCODING 354
SWIDTH 538 0
DWIDTH 7 0
BBX 6 12 0 -3
BITMAP
FC
30
30
30
30
30
30
30
30
00
30
20
ENDCHAR
STARTCHAR $0163
ENCODING 355
SWIDTH 384 0
DWIDTH 5 0
BBX 5 11 0 -3
BITMAP
20
60
F8
60
60
60
60
30
00
60
40
ENDCHAR
STARTCHAR $0164
ENCODING 356
SWIDTH 538 0
DWIDTH 7 0
BBX 6 12 0 0
BITMAP
28
10
00
FC
30
30
30
30
30
30
30
30
ENDCHAR
STARTCHAR $0165
ENCODING 357
SWIDTH 384 0
DWIDTH 5 0
BBX 6 10 0 0
BITMAP
0C
0C
28
60
F8
60
60
60
60
30
ENDCHAR
STARTCHAR $016A
ENCODING 362
SWIDTH 692 0
DWIDTH 9 0
BBX 8 11 0 0
BITMAP
3C
00
C3
C3
C3
C3
C3
C3
C3
66
3C
ENDCHAR
STARTCHAR $016B
ENCODING 363
SWIDTH 615 0
DWIDTH 8 0
BBX 6 8 1 0
BITMAP
78
00
CC
CC
CC
CC
CC
7C
ENDCHAR
STARTCHAR $016E
ENCODING 366
SWIDTH 692 0
DWIDTH 9 0
BBX 8 13 0 0
BITMAP
08
14
08
00
C3
C3
C3
C3
C3
C3
C3
66
3C
ENDCHAR
STARTCHAR $016F
ENCODING 367
SWIDTH 615 0
DWIDTH 8 0
BBX 6 10 1 0
BITMAP
10
28
10
00
CC
CC
CC
CC
CC
7C
ENDCHAR
STARTCHAR $0170
ENCODING 368
SWIDTH 692 0
DWIDTH 9 0
BBX 8 12 0 0
BITMAP
1B
36
00
C3
C3
C3
C3
C3
C3
C3
66
3C
ENDCHAR
STARTCHAR $0171
ENCODING 369
SWIDTH 615 0
DWIDTH 8 0
BBX 7 9 1 0
BITMAP
36
6C
00
CC
CC
CC
CC
CC
7C
ENDCHAR
STARTCHAR $0172
ENCODING 370
SWIDTH 692 0
DWIDTH 9 0
BBX 8 12 0 -3
BITMAP
C3
C3
C3
C3
C3
C3
C3
66
3C
18
10
0C
ENDCHAR
STARTCHAR $0173
ENCODING 371
SWIDTH 615 0
DWIDTH 8 0
BBX 7 9 1 -3
BITMAP
CC
CC
CC
CC
CC
7C
08
08
06
ENDCHAR
STARTCHAR $0178
ENCODING 376
SWIDTH 692 0
DWIDTH 9 0
BBX 8 12 0 0
BITMAP
36
36
00
C3
66
66
3C
18
18
18
18
18
ENDCHAR
STARTCHAR $0179
ENCODING 377
SWIDTH 692 0
DWIDTH 9 0
BBX 8 12 0 0
BITMAP
06
0C
00
7F
06
0C
0C
18
30
30
60
FF
ENDCHAR
STARTCHAR $017A
ENCODING 378
SWIDTH 538 0
DWIDTH 7 0
BBX 6 9 0 0
BITMAP
18
30
00
FC
18
30
30
60
FC
ENDCHAR
STARTCHAR $017B
ENCODING 379
SWIDTH 692 0
DWIDTH 9 0
BBX 8 12 0 0
BITMAP
0C
0C
00
7F
06
0C
0C
18
30
30
60
FF
ENDCHAR
STARTCHAR $017C
ENCODING 380
SWIDTH 538 0
DWIDTH 7 0
BBX 6 9 0 0
BITMAP
30
30
00
FC
18
30
30
60
FC
ENDCHAR
STARTCHAR $017D
ENCODING 381
SWIDTH 692 0
DWIDTH 9 0
BBX 8 12 0 0
BITMAP
14
08
00
7F
06
0C
0C
18
30
30
60
FF
ENDCHAR
STARTCHAR $017E
ENCODING 382
SWIDTH 538 0
DWIDTH 7 0
BBX 6 9 0 0
BITMAP
28
10
00
FC
18
30
30
60
FC
ENDCHAR
STARTCHAR $0192
ENCODING 402
SWIDTH 384 0
DWIDTH 5 0
BBX 7 13 -1 -3
BITMAP
06
0C
18
18
18
3C
18
30
30
30
30
60
C0
ENDCHAR
STARTCHAR $02C6
ENCODING 710
SWIDTH 384 0
DWIDTH 5 0
BBX 3 2 1 7
BITMAP
40
A0
ENDCHAR
STARTCHAR $02C7
ENCODING 711
SWIDTH 384 0
DWIDTH 5 0
BBX 3 2 1 7
BITMAP
A0
40
ENDCHAR
STARTCHAR $02C9
ENCODING 713
SWIDTH 384 0
DWIDTH 5 0
BBX 4 1 0 7
BITMAP
F0
ENDCHAR
STARTCHAR $02D8
ENCODING 728
SWIDTH 384 0
DWIDTH 5 0
BBX 4 2 0 7
BITMAP
90
60
ENDCHAR
STARTCHAR $02D9
ENCODING 729
SWIDTH 384 0
DWIDTH 5 0
BBX 2 2 1 7
BITMAP
C0
C0
ENDCHAR
STARTCHAR $02DA
ENCODING 730
SWIDTH 384 0
DWIDTH 5 0
BBX 3 3 1 7
BITMAP
40
A0
40
ENDCHAR
STARTCHAR $02DB
ENCODING 731
SWIDTH 384 0
DWIDTH 5 0
BBX 3 3 1 -3
BITMAP
40
80
60
ENDCHAR
STARTCHAR $02DC
ENCODING 732
SWIDTH 384 0
DWIDTH 5 0
BBX 5 2 0 7
BITMAP
68
B0
ENDCHAR
STARTCHAR $02DD
ENCODING 733
SWIDTH 384 0
DWIDTH 5 0
BBX 6 2 0 7
BITMAP
6C
D8
ENDCHAR
STARTCHAR $0384
ENCODING 900
SWIDTH 384 0
DWIDTH 5 0
BBX 3 2 1 7
BITMAP
60
C0
ENDCHAR
STARTCHAR $0385
ENCODING 901
SWIDTH 384 0
DWIDTH 5 0
BBX 7 3 -1 7
BITMAP
18
F6
E6
ENDCHAR
STARTCHAR $0386
ENCODING 902
SWIDTH 692 0
DWIDTH 9 0
BBX 9 9 0 0
BITMAP
6800
DC00
1C00
3600
3600
6300
7F00
C180
C180
ENDCHAR
STARTCHAR $0387
ENCODING 903
SWIDTH 230 0
DWIDTH 3 0
BBX 2 2 0 3
BITMAP
C0
C0
ENDCHAR
STARTCHAR $0388
ENCODING 904
SWIDTH 538 0
DWIDTH 7 0
BBX 10 9 -4 0
BITMAP
6FC0
CC00
0C00
0C00
0F80
0C00
0C00
0C00
0FC0
ENDCHAR
STARTCHAR $0389
ENCODING 905
SWIDTH 692 0
DWIDTH 9 0
BBX 11 9 -3 0
BITMAP
7860
D860
1860
1860
1FE0
1860
1860
1860
1860
ENDCHAR
STARTCHAR $038A
ENCODING 906
SWIDTH 230 0
DWIDTH 3 0
BBX 5 9 -3 0
BITMAP
78
D8
18
18
18
18
18
18
18
ENDCHAR
STARTCHAR $038C
ENCODING 908
SWIDTH 769 0
DWIDTH 10 0
BBX 11 9 -2 0
BITMAP
6F80
D8C0
3060
3060
3060
3060
3060
18C0
0F80
ENDCHAR
STARTCHAR $038E
ENCODING 910
SWIDTH 692 0
DWIDTH 9 0
BBX 11 9 -3 0
BITMAP
7860
CCC0
0CC0
0780
0300
0300
0300
0300
0300
ENDCHAR
STARTCHAR $038F
ENCODING 911
SWIDTH 769 0
DWIDTH 10 0
BBX 11 9 -2 0
BITMAP
6F80
D8C0
3060
3060
3060
3060
3060
18C0
38E0
ENDCHAR
STARTCHAR $0390
ENCODING 912
SWIDTH 307 0
DWIDTH 4 0
BBX 7 10 -1 0
BITMAP
18
F6
E6
00
30
30
30
30
30
18
ENDCHAR
STARTCHAR $0391
ENCODING 913
SWIDTH 769 0
DWIDTH 10 0
BBX 9 9 0 0
BITMAP
0800
1C00
1C00
3600
3600
6300
7F00
C180
C180
ENDCHAR
STARTCHAR $0392
ENCODING 914
SWIDTH 615 0
DWIDTH 8 0
BBX 7 9 0 0
BITMAP
FC
C6
C6
C6
F8
C6
C6
C6
FC
ENDCHAR
STARTCHAR $0393
ENCODING 915
SWIDTH 538 0
DWIDTH 7 0
BBX 6 9 0 0
BITMAP
FC
C0
C0
C0
C0
C0
C0
C0
C0
ENDCHAR
STARTCHAR $0394
ENCODING 916
SWIDTH 692 0
DWIDTH 9 0
BBX 9 9 0 0
BITMAP
0800
1C00
1C00
3600
3600
6300
6300
C180
FF80
ENDCHAR
STARTCHAR $0395
ENCODING 917
SWIDTH 538 0
DWIDTH 7 0
BBX 6 9 0 0
BITMAP
FC
C0
C0
C0
F8
C0
C0
C0
FC
ENDCHAR
STARTCHAR $0396
ENCODING 918
SWIDTH 692 0
DWIDTH 9 0
BBX 8 9 0 0
BITMAP
7F
06
0C
0C
18
30
30
60
FF
ENDCHAR
STARTCHAR $0397
ENCODING 919
SWIDTH 692 0
DWIDTH 9 0
BBX 8 9 0 0
BITMAP
C3
C3
C3
C3
FF
C3
C3
C3
C3
ENDCHAR
STARTCHAR $0398
ENCODING 920
SWIDTH 769 0
DWIDTH 10 0
BBX 9 9 0 0
BITMAP
3E00
6300
C180
C180
DD80
C180
C180
6300
3E00
ENDCHAR
STARTCHAR $0399
ENCODING 921
SWIDTH 230 0
DWIDTH 3 0
BBX 2 9 0 0
BITMAP
C0
C0
C0
C0
C0
C0
C0
C0
C0
ENDCHAR
STARTCHAR $039A
ENCODING 922
SWIDTH 692 0
DWIDTH 9 0
BBX 8 9 0 0
BITMAP
C3
C6
CC
D8
F0
D8
CC
C6
C3
ENDCHAR
STARTCHAR $039B
ENCODING 923
SWIDTH 692 0
DWIDTH 9 0
BBX 9 9 0 0
BITMAP
0800
1C00
1C00
3600
3600
6300
6300
C180
C180
ENDCHAR
STARTCHAR $039C
ENCODING 924
SWIDTH 846 0
DWIDTH 11 0
BBX 11 9 0 0
BITMAP
2080
3180
71C0
7BC0
7BC0
6EC0
CE60
CE60
C460
ENDCHAR
STARTCHAR $039D
ENCODING 925
SWIDTH 769 0
DWIDTH 10 0
BBX 9 9 0 0
BITMAP
8180
C180
E180
F180
D980
CD80
C780
C380
C180
ENDCHAR
STARTCHAR $039E
ENCODING 926
SWIDTH 615 0
DWIDTH 8 0
BBX 7 9 0 0
BITMAP
FE
00
00
00
7C
00
00
00
FE
ENDCHAR
STARTCHAR $039F
ENCODING 927
SWIDTH 769 0
DWIDTH 10 0
BBX 9 9 0 0
BITMAP
3E00
6300
C180
C180
C180
C180
C180
6300
3E00
ENDCHAR
STARTCHAR $03A0
ENCODING 928
SWIDTH 692 0
DWIDTH 9 0
BBX 8 9 0 0
BITMAP
FF
C3
C3
C3
C3
C3
C3
C3
C3
ENDCHAR
STARTCHAR $03A1
ENCODING 929
SWIDTH 538 0
DWIDTH 7 0
BBX 6 9 0 0
BITMAP
F8
CC
CC
CC
F8
C0
C0
C0
C0
ENDCHAR
STARTCHAR $03A3
ENCODING 931
SWIDTH 615 0
DWIDTH 8 0
BBX 8 9 0 0
BITMAP
FF
60
30
18
0C
18
30
60
FF
ENDCHAR
STARTCHAR $03A4
ENCODING 932
SWIDTH 538 0
DWIDTH 7 0
BBX 6 9 0 0
BITMAP
FC
30
30
30
30
30
30
30
30
ENDCHAR
STARTCHAR $03A5
ENCODING 933
SWIDTH 692 0
DWIDTH 9 0
BBX 8 9 0 0
BITMAP
C3
66
66
3C
18
18
18
18
18
ENDCHAR
STARTCHAR $03A6
ENCODING 934
SWIDTH 769 0
DWIDTH 10 0
BBX 10 9 0 0
BITMAP
0C00
3F00
6D80
CCC0
CCC0
CCC0
6D80
3F00
0C00
ENDCHAR
STARTCHAR $03A7
ENCODING 935
SWIDTH 692 0
DWIDTH 9 0
BBX 9 9 0 0
BITMAP
C180
6300
3600
1C00
1C00
1C00
3600
6300
C180
ENDCHAR
STARTCHAR $03A8
ENCODING 936
SWIDTH 846 0
DWIDTH 11 0
BBX 10 9 0 0
BITMAP
CCC0
CCC0
CCC0
CCC0
CCC0
6D80
3F00
0C00
0C00
ENDCHAR
STARTCHAR $03A9
ENCODING 937
SWIDTH 769 0
DWIDTH 10 0
BBX 9 9 0 0
BITMAP
3E00
6300
C180
C180
C180
C180
C180
6300
E380
ENDCHAR
STARTCHAR $03AA
ENCODING 938
SWIDTH 307 0
DWIDTH 4 0
BBX 5 12 -1 0
BITMAP
D8
D8
00
60
60
60
60
60
60
60
60
60
ENDCHAR
STARTCHAR $03AB
ENCODING 939
SWIDTH 692 0
DWIDTH 9 0
BBX 8 12 0 0
BITMAP
36
36
00
C3
66
66
3C
18
18
18
18
18
ENDCHAR
STARTCHAR $03AC
ENCODING 940
SWIDTH 615 0
DWIDTH 8 0
BBX 6 9 1 0
BITMAP
18
30
00
7C
CC
CC
CC
CC
7C
ENDCHAR
STARTCHAR $03AD
ENCODING 941
SWIDTH 461 0
DWIDTH 6 0
BBX 5 9 1 0
BITMAP
18
30
00
70
D0
E0
C0
D0
70
ENDCHAR
STARTCHAR $03AE
ENCODING 942
SWIDTH 615 0
DWIDTH 8 0
BBX 6 12 1 -3
BITMAP
18
30
00
F8
CC
CC
CC
CC
CC
0C
0C
0C
ENDCHAR
STARTCHAR $03AF
ENCODING 943
SWIDTH 307 0
DWIDTH 4 0
BBX 3 9 1 0
BITMAP
60
C0
00
C0
C0
C0
C0
C0
60
ENDCHAR
STARTCHAR $03B0
ENCODING 944
SWIDTH 615 0
DWIDTH 8 0
BBX 7 10 1 0
BITMAP
18
F6
E6
00
CC
CC
CC
CC
CC
78
ENDCHAR
STARTCHAR $03B1
ENCODING 945
SWIDTH 615 0
DWIDTH 8 0
BBX 6 6 1 0
BITMAP
7C
CC
CC
CC
CC
7C
ENDCHAR
STARTCHAR $03B2
ENCODING 946
SWIDTH 538 0
DWIDTH 7 0
BBX 5 13 1 -3
BITMAP
70
D8
D8
D8
F0
D8
D8
D8
D8
F0
C0
C0
C0
ENDCHAR
STARTCHAR $03B3
ENCODING 947
SWIDTH 538 0
DWIDTH 7 0
BBX 6 9 0 -3
BITMAP
CC
CC
78
78
30
30
30
30
30
ENDCHAR
STARTCHAR $03B4
ENCODING 948
SWIDTH 615 0
DWIDTH 8 0
BBX 6 10 1 0
BITMAP
3C
60
60
30
78
CC
CC
CC
CC
78
ENDCHAR
STARTCHAR $03B5
ENCODING 949
SWIDTH 461 0
DWIDTH 6 0
BBX 4 6 1 0
BITMAP
70
D0
E0
C0
D0
70
ENDCHAR
STARTCHAR $03B6
ENCODING 950
SWIDTH 461 0
DWIDTH 6 0
BBX 4 11 1 -2
BITMAP
F0
30
60
60
C0
C0
C0
C0
70
30
60
ENDCHAR
STARTCHAR $03B7
ENCODING 951
SWIDTH 615 0
DWIDTH 8 0
BBX 6 9 1 -3
BITMAP
F8
CC
CC
CC
CC
CC
0C
0C
0C
ENDCHAR
STARTCHAR $03B8
ENCODING 952
SWIDTH 538 0
DWIDTH 7 0
BBX 5 10 1 0
BITMAP
70
D8
D8
D8
F8
D8
D8
D8
D8
70
ENDCHAR
STARTCHAR $03B9
ENCODING 953
SWIDTH 307 0
DWIDTH 4 0
BBX 3 6 1 0
BITMAP
C0
C0
C0
C0
C0
60
ENDCHAR
STARTCHAR $03BA
ENCODING 954
SWIDTH 538 0
DWIDTH 7 0
BBX 6 6 1 0
BITMAP
CC
D8
F0
D8
D8
CC
ENDCHAR
STARTCHAR $03BB
ENCODING 955
SWIDTH 538 0
DWIDTH 7 0
BBX 7 9 0 0
BITMAP
60
60
30
30
38
38
6C
6C
C6
ENDCHAR
STARTCHAR $03BC
ENCODING 956
SWIDTH 615 0
DWIDTH 8 0
BBX 6 9 1 -3
BITMAP
CC
CC
CC
CC
CC
FC
C0
C0
C0
ENDCHAR
STARTCHAR $03BD
ENCODING 957
SWIDTH 538 0
DWIDTH 7 0
BBX 7 6 0 0
BITMAP
C6
6C
6C
38
38
10
ENDCHAR
STARTCHAR $03BE
ENCODING 958
SWIDTH 461 0
DWIDTH 6 0
BBX 5 12 1 -2
BITMAP
38
68
60
60
70
C0
C0
C0
C0
78
18
30
ENDCHAR
STARTCHAR $03BF
ENCODING 959
SWIDTH 615 0
DWIDTH 8 0
BBX 6 6 1 0
BITMAP
78
CC
CC
CC
CC
78
ENDCHAR
STARTCHAR $03C0
ENCODING 960
SWIDTH 615 0
DWIDTH 8 0
BBX 7 6 1 0
BITMAP
FE
6C
6C
6C
6C
66
ENDCHAR
STARTCHAR $03C1
ENCODING 961
SWIDTH 615 0
DWIDTH 8 0
BBX 6 9 1 -3
BITMAP
78
CC
CC
CC
CC
F8
C0
C0
C0
ENDCHAR
STARTCHAR $03C2
ENCODING 962
SWIDTH 461 0
DWIDTH 6 0
BBX 4 8 1 -2
BITMAP
70
C0
C0
C0
C0
70
30
60
ENDCHAR
STARTCHAR $03C3
ENCODING 963
SWIDTH 615 0
DWIDTH 8 0
BBX 7 6 1 0
BITMAP
7E
CC
CC
CC
CC
78
ENDCHAR
STARTCHAR $03C4
ENCODING 964
SWIDTH 384 0
DWIDTH 5 0
BBX 4 6 0 0
BITMAP
F0
60
60
60
60
30
ENDCHAR
STARTCHAR $03C5
ENCODING 965
SWIDTH 615 0
DWIDTH 8 0
BBX 6 6 1 0
BITMAP
CC
CC
CC
CC
CC
78
ENDCHAR
STARTCHAR $03C6
ENCODING 966
SWIDTH 615 0
DWIDTH 8 0
BBX 8 13 0 -3
BITMAP
18
18
18
18
7E
DB
DB
DB
DB
7E
18
18
18
ENDCHAR
STARTCHAR $03C7
ENCODING 967
SWIDTH 538 0
DWIDTH 7 0
BBX 7 9 0 -3
BITMAP
C6
6C
6C
38
38
38
6C
6C
C6
ENDCHAR
STARTCHAR $03C8
ENCODING 968
SWIDTH 692 0
DWIDTH 9 0
BBX 8 13 0 -3
BITMAP
18
18
18
18
DB
DB
DB
DB
DB
7E
18
18
18
ENDCHAR
STARTCHAR $03C9
ENCODING 969
SWIDTH 769 0
DWIDTH 10 0
BBX 8 6 1 0
BITMAP
66
C3
DB
DB
DB
66
ENDCHAR
STARTCHAR $03CA
ENCODING 970
SWIDTH 307 0
DWIDTH 4 0
BBX 5 9 0 0
BITMAP
D8
D8
00
60
60
60
60
60
30
ENDCHAR
STARTCHAR $03CB
ENCODING 971
SWIDTH 615 0
DWIDTH 8 0
BBX 6 9 1 0
BITMAP
6C
6C
00
CC
CC
CC
CC
CC
78
ENDCHAR
STARTCHAR $03CC
ENCODING 972
SWIDTH 615 0
DWIDTH 8 0
BBX 6 9 1 0
BITMAP
18
30
00
78
CC
CC
CC
CC
78
ENDCHAR
STARTCHAR $03CD
ENCODING 973
SWIDTH 615 0
DWIDTH 8 0
BBX 6 9 1 0
BITMAP
18
30
00
CC
CC
CC
CC
CC
78
ENDCHAR
STARTCHAR $03CE
ENCODING 974
SWIDTH 769 0
DWIDTH 10 0
BBX 8 9 1 0
BITMAP
0C
18
00
66
C3
DB
DB
DB
66
ENDCHAR
STARTCHAR $0401
ENCODING 1025
SWIDTH 538 0
DWIDTH 7 0
BBX 6 12 0 0
BITMAP
6C
6C
00
FC
C0
C0
C0
F8
C0
C0
C0
FC
ENDCHAR
STARTCHAR $0402
ENCODING 1026
SWIDTH 769 0
DWIDTH 10 0
BBX 9 9 0 0
BITMAP
FC00
3000
3000
3700
3980
3180
3180
3180
3700
ENDCHAR
STARTCHAR $0403
ENCODING 1027
SWIDTH 538 0
DWIDTH 7 0
BBX 6 12 0 0
BITMAP
18
30
00
FC
C0
C0
C0
C0
C0
C0
C0
C0
ENDCHAR
STARTCHAR $0404
ENCODING 1028
SWIDTH 615 0
DWIDTH 8 0
BBX 7 9 0 0
BITMAP
3C
62
C0
C0
FC
C0
C0
62
3C
ENDCHAR
STARTCHAR $0405
ENCODING 1029
SWIDTH 538 0
DWIDTH 7 0
BBX 6 9 0 0
BITMAP
78
C4
C0
E0
78
1C
0C
8C
78
ENDCHAR
STARTCHAR $0406
ENCODING 1030
SWIDTH 230 0
DWIDTH 3 0
BBX 2 9 0 0
BITMAP
C0
C0
C0
C0
C0
C0
C0
C0
C0
ENDCHAR
STARTCHAR $0407
ENCODING 1031
SWIDTH 230 0
DWIDTH 3 0
BBX 5 12 -1 0
BITMAP
D8
D8
00
60
60
60
60
60
60
60
60
60
ENDCHAR
STARTCHAR $0408
ENCODING 1032
SWIDTH 384 0
DWIDTH 5 0
BBX 4 9 0 0
BITMAP
30
30
30
30
30
30
30
30
E0
ENDCHAR
STARTCHAR $0409
ENCODING 1033
SWIDTH 1000 0
DWIDTH 13 0
BBX 12 9 0 0
BITMAP
7F00
6300
6300
6300
63E0
6330
6330
6330
C3E0
ENDCHAR
STARTCHAR $040A
ENCODING 1034
SWIDTH 923 0
DWIDTH 12 0
BBX 11 9 0 0
BITMAP
C600
C600
C600
C600
FFC0
C660
C660
C660
C7C0
ENDCHAR
STARTCHAR $040B
ENCODING 1035
SWIDTH 769 0
DWIDTH 10 0
BBX 9 9 0 0
BITMAP
FC00
3000
3000
3F00
3180
3180
3180
3180
3180
ENDCHAR
STARTCHAR $040C
ENCODING 1036
SWIDTH 692 0
DWIDTH 9 0
BBX 8 12 0 0
BITMAP
0C
18
00
C6
CC
CC
D8
F0
D8
CC
C6
C3
ENDCHAR
STARTCHAR $040E
ENCODING 1038
SWIDTH 692 0
DWIDTH 9 0
BBX 8 12 0 0
BITMAP
24
18
00
C3
66
66
3C
1C
18
18
30
E0
ENDCHAR
STARTCHAR $040F
ENCODING 1039
SWIDTH 692 0
DWIDTH 9 0
BBX 8 11 0 -2
BITMAP
C3
C3
C3
C3
C3
C3
C3
C3
FF
18
30
ENDCHAR
STARTCHAR $0410
ENCODING 1040
SWIDTH 692 0
DWIDTH 9 0
BBX 9 9 0 0
BITMAP
0800
1C00
1C00
3600
3600
6300
7F00
C180
C180
ENDCHAR
STARTCHAR $0411
ENCODING 1041
SWIDTH 615 0
DWIDTH 8 0
BBX 7 9 0 0
BITMAP
FC
C0
C0
C0
FC
C6
C6
C6
FC
ENDCHAR
STARTCHAR $0412
ENCODING 1042
SWIDTH 615 0
DWIDTH 8 0
BBX 7 9 0 0
BITMAP
FC
C6
C6
C6
F8
C6
C6
C6
FC
ENDCHAR
STARTCHAR $0413
ENCODING 1043
SWIDTH 538 0
DWIDTH 7 0
BBX 6 9 0 0
BITMAP
FC
C0
C0
C0
C0
C0
C0
C0
C0
ENDCHAR
STARTCHAR $0414
ENCODING 1044
SWIDTH 692 0
DWIDTH 9 0
BBX 8 11 0 -2
BITMAP
7E
66
66
66
66
66
66
66
FF
C1
81
ENDCHAR
STARTCHAR $0415
ENCODING 1045
SWIDTH 538 0
DWIDTH 7 0
BBX 6 9 0 0
BITMAP
FC
C0
C0
C0
F8
C0
C0
C0
FC
ENDCHAR
STARTCHAR $0416
ENCODING 1046
SWIDTH 1000 0
DWIDTH 13 0
BBX 12 9 0 0
BITMAP
C230
6660
6660
36C0
1F80
36C0
6660
C630
8410
ENDCHAR
STARTCHAR $0417
ENCODING 1047
SWIDTH 538 0
DWIDTH 7 0
BBX 6 9 0 0
BITMAP
78
8C
0C
0C
38
0C
0C
8C
78
ENDCHAR
STARTCHAR $0418
ENCODING 1048
SWIDTH 769 0
DWIDTH 10 0
BBX 9 9 0 0
BITMAP
C080
C180
C380
C780
CD80
D980
F180
E180
C180
ENDCHAR
STARTCHAR $0419
ENCODING 1049
SWIDTH 769 0
DWIDTH 10 0
BBX 9 12 0 0
BITMAP
1200
0C00
0000
C080
C180
C380
C780
CD80
D980
F180
E180
C180
ENDCHAR
STARTCHAR $041A
ENCODING 1050
SWIDTH 692 0
DWIDTH 9 0
BBX 8 9 0 0
BITMAP
C6
CC
CC
D8
F0
D8
CC
C6
C3
ENDCHAR
STARTCHAR $041B
ENCODING 1051
SWIDTH 692 0
DWIDTH 9 0
BBX 8 9 0 0
BITMAP
7F
63
63
63
63
63
63
63
C3
ENDCHAR
STARTCHAR $041C
ENCODING 1052
SWIDTH 769 0
DWIDTH 10 0
BBX 9 9 0 0
BITMAP
4100
6300
E380
F780
F780
DD80
DD80
DD80
C980
ENDCHAR
STARTCHAR $041D
ENCODING 1053
SWIDTH 692 0
DWIDTH 9 0
BBX 8 9 0 0
BITMAP
C3
C3
C3
C3
FF
C3
C3
C3
C3
ENDCHAR
STARTCHAR $041E
ENCODING 1054
SWIDTH 769 0
DWIDTH 10 0
BBX 9 9 0 0
BITMAP
3E00
6300
C180
C180
C180
C180
C180
6300
3E00
ENDCHAR
STARTCHAR $041F
ENCODING 1055
SWIDTH 692 0
DWIDTH 9 0
BBX 8 9 0 0
BITMAP
FF
C3
C3
C3
C3
C3
C3
C3
C3
ENDCHAR
STARTCHAR $0420
ENCODING 1056
SWIDTH 538 0
DWIDTH 7 0
BBX 6 9 0 0
BITMAP
F8
CC
CC
CC
F8
C0
C0
C0
C0
ENDCHAR
STARTCHAR $0421
ENCODING 1057
SWIDTH 615 0
DWIDTH 8 0
BBX 7 9 0 0
BITMAP
3C
62
C0
C0
C0
C0
C0
62
3C
ENDCHAR
STARTCHAR $0422
ENCODING 1058
SWIDTH 538 0
DWIDTH 7 0
BBX 6 9 0 0
BITMAP
FC
30
30
30
30
30
30
30
30
ENDCHAR
STARTCHAR $0423
ENCODING 1059
SWIDTH 692 0
DWIDTH 9 0
BBX 8 9 0 0
BITMAP
C3
66
66
3C
1C
18
18
30
E0
ENDCHAR
STARTCHAR $0424
ENCODING 1060
SWIDTH 846 0
DWIDTH 11 0
BBX 10 9 0 0
BITMAP
0C00
3F00
6D80
CCC0
CCC0
CCC0
6D80
3F00
0C00
ENDCHAR
STARTCHAR $0425
ENCODING 1061
SWIDTH 769 0
DWIDTH 10 0
BBX 9 9 0 0
BITMAP
C180
6300
3600
1C00
1C00
1C00
3600
6300
C180
ENDCHAR
STARTCHAR $0426
ENCODING 1062
SWIDTH 692 0
DWIDTH 9 0
BBX 8 11 0 -2
BITMAP
C6
C6
C6
C6
C6
C6
C6
C6
FF
03
06
ENDCHAR
STARTCHAR $0427
ENCODING 1063
SWIDTH 615 0
DWIDTH 8 0
BBX 7 9 0 0
BITMAP
C6
C6
C6
C6
C6
7E
06
06
06
ENDCHAR
STARTCHAR $0428
ENCODING 1064
SWIDTH 923 0
DWIDTH 12 0
BBX 10 9 1 0
BITMAP
CCC0
CCC0
CCC0
CCC0
CCC0
CCC0
CCC0
CCC0
FFC0
ENDCHAR
STARTCHAR $0429
ENCODING 1065
SWIDTH 923 0
DWIDTH 12 0
BBX 10 11 1 -2
BITMAP
CD80
CD80
CD80
CD80
CD80
CD80
CD80
CD80
FFC0
00C0
0180
ENDCHAR
STARTCHAR $042A
ENCODING 1066
SWIDTH 692 0
DWIDTH 9 0
BBX 8 9 0 0
BITMAP
F0
30
30
30
3E
33
33
33
3E
ENDCHAR
STARTCHAR $042B
ENCODING 1067
SWIDTH 846 0
DWIDTH 11 0
BBX 9 9 0 0
BITMAP
C180
C180
C180
C180
F980
CD80
CD80
CD80
F980
ENDCHAR
STARTCHAR $042C
ENCODING 1068
SWIDTH 615 0
DWIDTH 8 0
BBX 6 9 0 0
BITMAP
C0
C0
C0
C0
F8
CC
CC
CC
F8
ENDCHAR
STARTCHAR $042D
ENCODING 1069
SWIDTH 615 0
DWIDTH 8 0
BBX 7 9 0 0
BITMAP
78
8C
06
06
7E
06
06
8C
78
ENDCHAR
STARTCHAR $042E
ENCODING 1070
SWIDTH 1000 0
DWIDTH 13 0
BBX 12 9 0 0
BITMAP
C7C0
CC60
D830
D830
F830
D830
D830
CC60
C7C0
ENDCHAR
STARTCHAR $042F
ENCODING 1071
SWIDTH 615 0
DWIDTH 8 0
BBX 7 9 0 0
BITMAP
3E
66
66
66
3E
36
66
66
C6
ENDCHAR
STARTCHAR $0430
ENCODING 1072
SWIDTH 615 0
DWIDTH 8 0
BBX 6 6 1 0
BITMAP
74
CC
CC
CC
CC
7C
ENDCHAR
STARTCHAR $0431
ENCODING 1073
SWIDTH 615 0
DWIDTH 8 0
BBX 6 10 1 0
BITMAP
0C
30
60
C0
F8
CC
CC
CC
CC
78
ENDCHAR
STARTCHAR $0432
ENCODING 1074
SWIDTH 538 0
DWIDTH 7 0
BBX 5 6 1 0
BITMAP
F0
D8
F0
D8
D8
F0
ENDCHAR
STARTCHAR $0433
ENCODING 1075
SWIDTH 384 0
DWIDTH 5 0
BBX 4 6 1 0
BITMAP
F0
C0
C0
C0
C0
C0
ENDCHAR
STARTCHAR $0434
ENCODING 1076
SWIDTH 538 0
DWIDTH 7 0
BBX 7 7 0 -1
BITMAP
3C
2C
6C
6C
6C
FE
82
ENDCHAR
STARTCHAR $0435
ENCODING 1077
SWIDTH 538 0
DWIDTH 7 0
BBX 5 6 1 0
BITMAP
70
D8
D8
F0
C0
78
ENDCHAR
STARTCHAR $0436
ENCODING 1078
SWIDTH 769 0
DWIDTH 10 0
BBX 8 6 1 0
BITMAP
DB
DB
3C
7E
DB
DB
ENDCHAR
STARTCHAR $0437
ENCODING 1079
SWIDTH 461 0
DWIDTH 6 0
BBX 4 6 1 0
BITMAP
E0
30
60
30
30
E0
ENDCHAR
STARTCHAR $0438
ENCODING 1080
SWIDTH 615 0
DWIDTH 8 0
BBX 6 6 1 0
BITMAP
C4
CC
DC
EC
CC
8C
ENDCHAR
STARTCHAR $0439
ENCODING 1081
SWIDTH 615 0
DWIDTH 8 0
BBX 6 9 1 0
BITMAP
48
30
00
C4
CC
DC
EC
CC
8C
ENDCHAR
STARTCHAR $043A
ENCODING 1082
SWIDTH 538 0
DWIDTH 7 0
BBX 5 6 1 0
BITMAP
D8
D8
E0
F0
D8
D8
ENDCHAR
STARTCHAR $043B
ENCODING 1083
SWIDTH 615 0
DWIDTH 8 0
BBX 7 6 0 0
BITMAP
7E
66
66
66
66
C6
ENDCHAR
STARTCHAR $043C
ENCODING 1084
SWIDTH 615 0
DWIDTH 8 0
BBX 7 6 0 0
BITMAP
44
6C
6C
EE
FE
D6
ENDCHAR
STARTCHAR $043D
ENCODING 1085
SWIDTH 615 0
DWIDTH 8 0
BBX 6 6 1 0
BITMAP
CC
CC
FC
CC
CC
CC
ENDCHAR
STARTCHAR $043E
ENCODING 1086
SWIDTH 615 0
DWIDTH 8 0
BBX 6 6 1 0
BITMAP
78
CC
CC
CC
CC
78
ENDCHAR
STARTCHAR $043F
ENCODING 1087
SWIDTH 615 0
DWIDTH 8 0
BBX 6 6 1 0
BITMAP
FC
CC
CC
CC
CC
CC
ENDCHAR
STARTCHAR $0440
ENCODING 1088
SWIDTH 615 0
DWIDTH 8 0
BBX 6 9 1 -3
BITMAP
B8
CC
CC
CC
CC
F8
C0
C0
C0
ENDCHAR
STARTCHAR $0441
ENCODING 1089
SWIDTH 461 0
DWIDTH 6 0
BBX 4 6 1 0
BITMAP
70
D0
C0
C0
D0
70
ENDCHAR
STARTCHAR $0442
ENCODING 1090
SWIDTH 461 0
DWIDTH 6 0
BBX 6 6 0 0
BITMAP
FC
30
30
30
30
30
ENDCHAR
STARTCHAR $0443
ENCODING 1091
SWIDTH 538 0
DWIDTH 7 0
BBX 7 9 0 -3
BITMAP
C6
66
6C
3C
38
38
30
70
60
ENDCHAR
STARTCHAR $0444
ENCODING 1092
SWIDTH 615 0
DWIDTH 8 0
BBX 8 13 0 -3
BITMAP
18
18
18
18
7E
DB
DB
DB
DB
7E
18
18
18
ENDCHAR
STARTCHAR $0445
ENCODING 1093
SWIDTH 538 0
DWIDTH 7 0
BBX 7 6 0 0
BITMAP
C6
6C
38
38
6C
C6
ENDCHAR
STARTCHAR $0446
ENCODING 1094
SWIDTH 615 0
DWIDTH 8 0
BBX 7 8 1 -2
BITMAP
CC
CC
CC
CC
CC
FE
0C
18
ENDCHAR
STARTCHAR $0447
ENCODING 1095
SWIDTH 538 0
DWIDTH 7 0
BBX 5 6 1 0
BITMAP
D8
D8
D8
78
18
18
ENDCHAR
STARTCHAR $0448
ENCODING 1096
SWIDTH 846 0
DWIDTH 11 0
BBX 8 6 1 0
BITMAP
DB
DB
DB
DB
DB
FF
ENDCHAR
STARTCHAR $0449
ENCODING 1097
SWIDTH 846 0
DWIDTH 11 0
BBX 9 8 1 -2
BITMAP
DB00
DB00
DB00
DB00
DB00
FF80
0300
0600
ENDCHAR
STARTCHAR $044A
ENCODING 1098
SWIDTH 615 0
DWIDTH 8 0
BBX 7 6 0 0
BITMAP
F0
30
3C
36
36
3C
ENDCHAR
STARTCHAR $044B
ENCODING 1099
SWIDTH 769 0
DWIDTH 10 0
BBX 8 6 1 0
BITMAP
C3
C3
F3
DB
DB
F3
ENDCHAR
STARTCHAR $044C
ENCODING 1100
SWIDTH 538 0
DWIDTH 7 0
BBX 5 6 1 0
BITMAP
C0
C0
F0
D8
D8
F0
ENDCHAR
STARTCHAR $044D
ENCODING 1101
SWIDTH 461 0
DWIDTH 6 0
BBX 4 6 1 0
BITMAP
E0
B0
70
30
B0
E0
ENDCHAR
STARTCHAR $044E
ENCODING 1102
SWIDTH 846 0
DWIDTH 11 0
BBX 9 6 1 0
BITMAP
CF00
D980
F980
D980
D980
CF00
ENDCHAR
STARTCHAR $044F
ENCODING 1103
SWIDTH 461 0
DWIDTH 6 0
BBX 5 6 0 0
BITMAP
78
D8
D8
78
78
D8
ENDCHAR
STARTCHAR $0451
ENCODING 1105
SWIDTH 538 0
DWIDTH 7 0
BBX 5 9 1 0
BITMAP
D8
D8
00
70
D8
D8
F0
C0
78
ENDCHAR
STARTCHAR $0452
ENCODING 1106
SWIDTH 615 0
DWIDTH 8 0
BBX 7 13 0 -3
BITMAP
20
F8
60
60
7C
66
66
66
66
66
06
0C
18
ENDCHAR
STARTCHAR $0453
ENCODING 1107
SWIDTH 384 0
DWIDTH 5 0
BBX 4 9 1 0
BITMAP
30
60
00
F0
C0
C0
C0
C0
C0
ENDCHAR
STARTCHAR $0454
ENCODING 1108
SWIDTH 461 0
DWIDTH 6 0
BBX 4 6 1 0
BITMAP
70
D0
E0
C0
D0
70
ENDCHAR
STARTCHAR $0455
ENCODING 1109
SWIDTH 461 0
DWIDTH 6 0
BBX 4 6 1 0
BITMAP
70
C0
E0
70
30
E0
ENDCHAR
STARTCHAR $0456
ENCODING 1110
SWIDTH 230 0
DWIDTH 3 0
BBX 2 9 0 0
BITMAP
C0
C0
00
C0
C0
C0
C0
C0
C0
ENDCHAR
STARTCHAR $0457
ENCODING 1111
SWIDTH 230 0
DWIDTH 3 0
BBX 5 9 -1 0
BITMAP
D8
D8
00
60
60
60
60
60
60
ENDCHAR
STARTCHAR $0458
ENCODING 1112
SWIDTH 230 0
DWIDTH 3 0
BBX 4 12 -1 -3
BITMAP
30
30
00
30
30
30
30
30
30
30
60
C0
ENDCHAR
STARTCHAR $0459
ENCODING 1113
SWIDTH 846 0
DWIDTH 11 0
BBX 9 6 1 0
BITMAP
7C00
6C00
6F00
6D80
6D80
CF00
ENDCHAR
STARTCHAR $045A
ENCODING 1114
SWIDTH 846 0
DWIDTH 11 0
BBX 9 6 1 0
BITMAP
CC00
CC00
FF00
CD80
CD80
CF00
ENDCHAR
STARTCHAR $045B
ENCODING 1115
SWIDTH 615 0
DWIDTH 8 0
BBX 7 10 0 0
BITMAP
20
F8
60
60
7C
66
66
66
66
66
ENDCHAR
STARTCHAR $045C
ENCODING 1116
SWIDTH 538 0
DWIDTH 7 0
BBX 5 9 1 0
BITMAP
18
30
00
D8
D8
E0
F0
D8
D8
ENDCHAR
STARTCHAR $045E
ENCODING 1118
SWIDTH 538 0
DWIDTH 7 0
BBX 7 12 0 -3
BITMAP
24
18
00
C6
66
6C
3C
38
38
30
70
60
ENDCHAR
STARTCHAR $045F
ENCODING 1119
SWIDTH 615 0
DWIDTH 8 0
BBX 6 8 1 -2
BITMAP
CC
CC
CC
CC
CC
FC
30
60
ENDCHAR
STARTCHAR $0490
ENCODING 1168
SWIDTH 461 0
DWIDTH 6 0
BBX 5 11 0 0
BITMAP
08
18
F8
C0
C0
C0
C0
C0
C0
C0
C0
ENDCHAR
STARTCHAR $0491
ENCODING 1169
SWIDTH 461 0
DWIDTH 6 0
BBX 4 8 1 0
BITMAP
10
30
F0
C0
C0
C0
C0
C0
ENDCHAR
STARTCHAR $0492
ENCODING 1170
SWIDTH 307 0
DWIDTH 4 0
BBX 4 2 0 7
BITMAP
90
60
ENDCHAR
STARTCHAR uni04B8
ENCODING 1208
SWIDTH 1000 0
DWIDTH 13 0
BBX 1 1 4 5
BITMAP
00
ENDCHAR
STARTCHAR $2013
ENCODING 8211
SWIDTH 538 0
DWIDTH 7 0
BBX 7 1 0 3
BITMAP
FE
ENDCHAR
STARTCHAR $2014
ENCODING 8212
SWIDTH 1000 0
DWIDTH 13 0
BBX 13 1 0 3
BITMAP
FFF8
ENDCHAR
STARTCHAR $2015
ENCODING 8213
SWIDTH 1000 0
DWIDTH 13 0
BBX 12 1 0 3
BITMAP
FFF0
ENDCHAR
STARTCHAR $2018
ENCODING 8216
SWIDTH 230 0
DWIDTH 3 0
BBX 2 4 0 6
BITMAP
40
80
C0
C0
ENDCHAR
STARTCHAR $2019
ENCODING 8217
SWIDTH 230 0
DWIDTH 3 0
BBX 2 4 0 6
BITMAP
C0
C0
40
80
ENDCHAR
STARTCHAR $201A
ENCODING 8218
SWIDTH 230 0
DWIDTH 3 0
BBX 2 4 0 -2
BITMAP
C0
C0
40
80
ENDCHAR
STARTCHAR $201C
ENCODING 8220
SWIDTH 461 0
DWIDTH 6 0
BBX 5 4 0 6
BITMAP
48
90
D8
D8
ENDCHAR
STARTCHAR $201D
ENCODING 8221
SWIDTH 461 0
DWIDTH 6 0
BBX 5 4 0 6
BITMAP
D8
D8
48
90
ENDCHAR
STARTCHAR $201E
ENCODING 8222
SWIDTH 461 0
DWIDTH 6 0
BBX 5 4 0 -2
BITMAP
D8
D8
48
90
ENDCHAR
STARTCHAR $2020
ENCODING 8224
SWIDTH 538 0
DWIDTH 7 0
BBX 6 13 0 -3
BITMAP
30
30
30
30
FC
30
30
30
30
30
30
30
30
ENDCHAR
STARTCHAR $2021
ENCODING 8225
SWIDTH 538 0
DWIDTH 7 0
BBX 6 13 0 -3
BITMAP
30
30
30
FC
30
30
30
FC
30
30
30
30
30
ENDCHAR
STARTCHAR $2022
ENCODING 8226
SWIDTH 538 0
DWIDTH 7 0
BBX 5 5 1 2
BITMAP
70
F8
F8
F8
70
ENDCHAR
STARTCHAR $2026
ENCODING 8230
SWIDTH 1000 0
DWIDTH 13 0
BBX 10 2 1 0
BITMAP
CCC0
CCC0
ENDCHAR
STARTCHAR $2030
ENCODING 8240
SWIDTH 1076 0
DWIDTH 14 0
BBX 13 9 0 0
BITMAP
6400
9400
9800
6800
0800
1630
1948
2948
2630
ENDCHAR
STARTCHAR $2039
ENCODING 8249
SWIDTH 307 0
DWIDTH 4 0
BBX 3 5 0 1
BITMAP
20
40
80
40
20
ENDCHAR
STARTCHAR $203A
ENCODING 8250
SWIDTH 307 0
DWIDTH 4 0
BBX 3 5 1 1
BITMAP
80
40
20
40
80
ENDCHAR
STARTCHAR $20AC
ENCODING 8364
SWIDTH 615 0
DWIDTH 8 0
BBX 7 9 0 0
BITMAP
1C
32
60
FC
60
FC
60
32
1C
ENDCHAR
STARTCHAR $2116
ENCODING 8470
SWIDTH 1000 0
DWIDTH 13 0
BBX 12 9 0 0
BITMAP
8600
C600
E600
F6E0
FFB0
DFB0
CEE0
C600
C3F0
ENDCHAR
STARTCHAR $2122
ENCODING 8482
SWIDTH 1000 0
DWIDTH 13 0
BBX 12 5 0 4
BITMAP
FA20
2220
2550
2490
2490
ENDCHAR
STARTCHAR $2126
ENCODING 8486
SWIDTH 538 0
DWIDTH 7 0
BBX 5 5 1 2
BITMAP
70
F8
F8
F8
F0
ENDCHAR
STARTCHAR $2202
ENCODING 8706
SWIDTH 538 0
DWIDTH 7 0
BBX 5 5 1 2
BITMAP
70
F8
F8
F8
F0
ENDCHAR
STARTCHAR $2206
ENCODING 8710
SWIDTH 538 0
DWIDTH 7 0
BBX 5 5 1 2
BITMAP
70
F8
F8
F8
F0
ENDCHAR
STARTCHAR $220F
ENCODING 8719
SWIDTH 538 0
DWIDTH 7 0
BBX 5 5 1 2
BITMAP
70
F8
F8
F8
F0
ENDCHAR
STARTCHAR $2211
ENCODING 8721
SWIDTH 538 0
DWIDTH 7 0
BBX 5 5 1 2
BITMAP
70
F8
F8
F8
F0
ENDCHAR
STARTCHAR $2212
ENCODING 8722
SWIDTH 538 0
DWIDTH 7 0
BBX 4 1 1 4
BITMAP
F0
ENDCHAR
STARTCHAR $2215
ENCODING 8725
SWIDTH 76 0
DWIDTH 1 0
BBX 7 9 -3 0
BITMAP
02
04
08
08
10
20
20
40
80
ENDCHAR
STARTCHAR $2219
ENCODING 8729
SWIDTH 230 0
DWIDTH 3 0
BBX 2 2 0 3
BITMAP
C0
C0
ENDCHAR
STARTCHAR $221A
ENCODING 8730
SWIDTH 538 0
DWIDTH 7 0
BBX 5 5 1 2
BITMAP
70
F8
F8
F8
F0
ENDCHAR
STARTCHAR $221E
ENCODING 8734
SWIDTH 538 0
DWIDTH 7 0
BBX 5 5 1 2
BITMAP
70
F8
F8
F8
F0
ENDCHAR
STARTCHAR $222B
ENCODING 8747
SWIDTH 538 0
DWIDTH 7 0
BBX 5 5 1 2
BITMAP
70
F8
F8
F8
F0
ENDCHAR
STARTCHAR $2248
ENCODING 8776
SWIDTH 538 0
DWIDTH 7 0
BBX 5 5 1 2
BITMAP
70
F8
F8
F8
F0
ENDCHAR
STARTCHAR $2260
ENCODING 8800
SWIDTH 538 0
DWIDTH 7 0
BBX 5 5 1 2
BITMAP
70
F8
F8
F8
F0
ENDCHAR
STARTCHAR $2264
ENCODING 8804
SWIDTH 538 0
DWIDTH 7 0
BBX 5 5 1 2
BITMAP
70
F8
F8
F8
F0
ENDCHAR
STARTCHAR $2265
ENCODING 8805
SWIDTH 538 0
DWIDTH 7 0
BBX 5 5 1 2
BITMAP
70
F8
F8
F8
F0
ENDCHAR
STARTCHAR $25CA
ENCODING 9674
SWIDTH 538 0
DWIDTH 7 0
BBX 5 5 1 2
BITMAP
70
F8
F8
F8
F0
ENDCHAR
STARTCHAR F000
ENCODING 61440
SWIDTH 538 0
DWIDTH 7 0
BBX 5 5 1 2
BITMAP
70
F8
F8
F8
F0
ENDCHAR
STARTCHAR F006
ENCODING 61446
SWIDTH 538 0
DWIDTH 7 0
BBX 5 5 1 2
BITMAP
70
F8
F8
F8
F0
ENDCHAR
STARTCHAR FB01
ENCODING 64257
SWIDTH 615 0
DWIDTH 8 0
BBX 7 10 0 0
BITMAP
18
36
66
60
FE
66
66
66
66
66
ENDCHAR
STARTCHAR FB02
ENCODING 64258
SWIDTH 615 0
DWIDTH 8 0
BBX 7 10 0 0
BITMAP
1E
36
66
66
F6
66
66
66
66
66
ENDCHAR
ENDFONT
